%TF.GenerationSoftware,KiCad,Pcbnew,8.0.2*%
%TF.CreationDate,2024-06-16T13:33:32+02:00*%
%TF.ProjectId,pmod-factory,706d6f64-2d66-4616-9374-6f72792e6b69,rev?*%
%TF.SameCoordinates,Original*%
%TF.FileFunction,Copper,L2,Bot*%
%TF.FilePolarity,Positive*%
%FSLAX46Y46*%
G04 Gerber Fmt 4.6, Leading zero omitted, Abs format (unit mm)*
G04 Created by KiCad (PCBNEW 8.0.2) date 2024-06-16 13:33:32*
%MOMM*%
%LPD*%
G01*
G04 APERTURE LIST*
%TA.AperFunction,ComponentPad*%
%ADD10R,1.700000X1.700000*%
%TD*%
%TA.AperFunction,ComponentPad*%
%ADD11O,1.700000X1.700000*%
%TD*%
%TA.AperFunction,ComponentPad*%
%ADD12C,1.700000*%
%TD*%
%TA.AperFunction,ViaPad*%
%ADD13C,0.800000*%
%TD*%
%TA.AperFunction,ViaPad*%
%ADD14C,0.600000*%
%TD*%
%TA.AperFunction,Conductor*%
%ADD15C,0.250000*%
%TD*%
%TA.AperFunction,Conductor*%
%ADD16C,0.200000*%
%TD*%
G04 APERTURE END LIST*
D10*
%TO.P,J2,1,IO1*%
%TO.N,Net-(J2-IO1)*%
X146050000Y-77470000D03*
D11*
%TO.P,J2,2,IO2*%
%TO.N,Net-(J2-IO2)*%
X143510000Y-77470000D03*
%TO.P,J2,3,IO3*%
%TO.N,Net-(J2-IO3)*%
X140970000Y-77470000D03*
%TO.P,J2,4,IO4*%
%TO.N,Net-(J2-IO4)*%
X138430000Y-77470000D03*
%TO.P,J2,5,GND*%
%TO.N,GND*%
X135890000Y-77470000D03*
D12*
%TO.P,J2,6,VCC*%
%TO.N,+3.3V*%
X133350000Y-77470000D03*
D11*
%TO.P,J2,7,IO5*%
%TO.N,Net-(J2-IO5)*%
X146050000Y-74930000D03*
%TO.P,J2,8,IO6*%
%TO.N,Net-(J2-IO6)*%
X143510000Y-74930000D03*
%TO.P,J2,9,IO7*%
%TO.N,Net-(J2-IO7)*%
X140970000Y-74930000D03*
%TO.P,J2,10,IO8*%
%TO.N,Net-(J2-IO8)*%
X138430000Y-74930000D03*
%TO.P,J2,11,GND*%
%TO.N,GND*%
X135890000Y-74930000D03*
%TO.P,J2,12,VCC*%
%TO.N,+3.3V*%
X133350000Y-74930000D03*
%TD*%
D10*
%TO.P,J3,1,IO1*%
%TO.N,Net-(J3-IO1)*%
X168910000Y-77470000D03*
D11*
%TO.P,J3,2,IO2*%
%TO.N,Net-(J3-IO2)*%
X166370000Y-77470000D03*
%TO.P,J3,3,IO3*%
%TO.N,Net-(J3-IO3)*%
X163830000Y-77470000D03*
%TO.P,J3,4,IO4*%
%TO.N,Net-(J3-IO4)*%
X161290000Y-77470000D03*
%TO.P,J3,5,GND*%
%TO.N,GND*%
X158750000Y-77470000D03*
D12*
%TO.P,J3,6,VCC*%
%TO.N,+3.3V*%
X156210000Y-77470000D03*
D11*
%TO.P,J3,7,IO5*%
%TO.N,Net-(J3-IO5)*%
X168910000Y-74930000D03*
%TO.P,J3,8,IO6*%
%TO.N,Net-(J3-IO6)*%
X166370000Y-74930000D03*
%TO.P,J3,9,IO7*%
%TO.N,Net-(J3-IO7)*%
X163830000Y-74930000D03*
%TO.P,J3,10,IO8*%
%TO.N,Net-(J3-IO8)*%
X161290000Y-74930000D03*
%TO.P,J3,11,GND*%
%TO.N,GND*%
X158750000Y-74930000D03*
%TO.P,J3,12,VCC*%
%TO.N,+3.3V*%
X156210000Y-74930000D03*
%TD*%
D10*
%TO.P,J1,1,IO1*%
%TO.N,Net-(J1-IO1)*%
X123190000Y-77470000D03*
D11*
%TO.P,J1,2,IO2*%
%TO.N,Net-(J1-IO2)*%
X120650000Y-77470000D03*
%TO.P,J1,3,IO3*%
%TO.N,Net-(J1-IO3)*%
X118110000Y-77470000D03*
%TO.P,J1,4,IO4*%
%TO.N,Net-(J1-IO4)*%
X115570000Y-77470000D03*
%TO.P,J1,5,GND*%
%TO.N,GND*%
X113030000Y-77470000D03*
D12*
%TO.P,J1,6,VCC*%
%TO.N,+3.3V*%
X110490000Y-77470000D03*
D11*
%TO.P,J1,7,IO5*%
%TO.N,Net-(J1-IO5)*%
X123190000Y-74930000D03*
%TO.P,J1,8,IO6*%
%TO.N,Net-(J1-IO6)*%
X120650000Y-74930000D03*
%TO.P,J1,9,IO7*%
%TO.N,Net-(J1-IO7)*%
X118110000Y-74930000D03*
%TO.P,J1,10,IO8*%
%TO.N,Net-(J1-IO8)*%
X115570000Y-74930000D03*
%TO.P,J1,11,GND*%
%TO.N,GND*%
X113030000Y-74930000D03*
%TO.P,J1,12,VCC*%
%TO.N,+3.3V*%
X110490000Y-74930000D03*
%TD*%
D13*
%TO.N,GND*%
X170180000Y-110490000D03*
D14*
X106680000Y-100330000D03*
D13*
X161925000Y-110490000D03*
X112395000Y-110490000D03*
D14*
X118745000Y-95250000D03*
D13*
X121855000Y-100330000D03*
X110490000Y-100330000D03*
D14*
X153035000Y-74930000D03*
D13*
X145415000Y-83185000D03*
X143510000Y-118745000D03*
X135255000Y-100330000D03*
D14*
X126365000Y-95250000D03*
D13*
X168275000Y-100330000D03*
D14*
X168275000Y-95885000D03*
D13*
X120650000Y-83185000D03*
X153670000Y-110490000D03*
X153670000Y-83185000D03*
X137160000Y-83185000D03*
D14*
X110490000Y-95250000D03*
X171450000Y-118745000D03*
D13*
X137160000Y-110490000D03*
X135255000Y-118745000D03*
D14*
X123825000Y-94615000D03*
D13*
X113600000Y-100330000D03*
X151765000Y-100330000D03*
X146620000Y-100330000D03*
X154875000Y-100330000D03*
X163130000Y-100330000D03*
X161925000Y-83185000D03*
X160020000Y-100330000D03*
X128905000Y-110490000D03*
X145415000Y-110490000D03*
X143510000Y-100330000D03*
X130110000Y-100330000D03*
X128905000Y-83185000D03*
X160020000Y-118745000D03*
X168275000Y-118745000D03*
X110490000Y-118745000D03*
X151765000Y-118745000D03*
X170180000Y-83185000D03*
D14*
X107315000Y-74930000D03*
D13*
X138365000Y-100330000D03*
X118745000Y-118745000D03*
X120650000Y-110490000D03*
D14*
X109220000Y-121285000D03*
D13*
X118745000Y-100330000D03*
D14*
X130175000Y-74930000D03*
D13*
X127000000Y-118745000D03*
X127000000Y-100330000D03*
X112395000Y-83185000D03*
D14*
%TO.N,Net-(J1-IO1)*%
X114935000Y-92075000D03*
X127000000Y-92075000D03*
%TO.N,Net-(J1-IO2)*%
X123190000Y-91440000D03*
X119380000Y-91440000D03*
%TO.N,Net-(J1-IO3)*%
X131445000Y-90170000D03*
X118110000Y-90170000D03*
%TO.N,Net-(J1-IO4)*%
X110490000Y-88900000D03*
X139700000Y-88900000D03*
%TO.N,Net-(J1-IO5)*%
X126365000Y-91440000D03*
X147955000Y-91440000D03*
%TO.N,Net-(J1-IO6)*%
X118745000Y-90805000D03*
X156210000Y-90805000D03*
%TO.N,Net-(J1-IO7)*%
X111125000Y-89535000D03*
X164465000Y-89535000D03*
%TO.N,Net-(J1-IO8)*%
X109855000Y-88230000D03*
X172085000Y-88265000D03*
D13*
%TO.N,+3.3V*%
X125095000Y-102870000D03*
X166375000Y-102870000D03*
X158120000Y-102865000D03*
X141610000Y-102870000D03*
X116845000Y-102870000D03*
X108585000Y-102890000D03*
X149865000Y-102875000D03*
X133355000Y-102865000D03*
D14*
%TO.N,Net-(J2-IO8)*%
X170175000Y-92710000D03*
X127635000Y-92710000D03*
%TO.N,Net-(J2-IO4)*%
X134620000Y-92075000D03*
X137155000Y-92075000D03*
%TO.N,Net-(J2-IO7)*%
X135255000Y-90170000D03*
X161920000Y-90170000D03*
%TO.N,Net-(J2-IO3)*%
X135890000Y-93345000D03*
X128900000Y-93345000D03*
%TO.N,Net-(J2-IO6)*%
X153665000Y-92075000D03*
X142875000Y-92075000D03*
%TO.N,Net-(J2-IO1)*%
X151130000Y-95250000D03*
X112385000Y-92710000D03*
%TO.N,Net-(J2-IO2)*%
X143510000Y-94615000D03*
X120645000Y-92710000D03*
%TO.N,Net-(J3-IO7)*%
X163830000Y-90805000D03*
X159385000Y-90805000D03*
%TO.N,Net-(J3-IO3)*%
X130810000Y-93980000D03*
X160020000Y-93980000D03*
%TO.N,Net-(J3-IO1)*%
X114300000Y-96520000D03*
X168910000Y-93980000D03*
%TO.N,Net-(J3-IO4)*%
X139065000Y-93345000D03*
X152400000Y-93345000D03*
%TO.N,Net-(J3-IO2)*%
X122555000Y-95885000D03*
X167640000Y-93345000D03*
%TO.N,Net-(J3-IO5)*%
X147320000Y-97155000D03*
X168275000Y-94615000D03*
%TO.N,Net-(J3-IO6)*%
X160655000Y-91440000D03*
X155575000Y-91440000D03*
%TO.N,Net-(J3-IO8)*%
X171450000Y-88900000D03*
X151765000Y-88900000D03*
%TO.N,Net-(R1-Pad2)*%
X112395000Y-121920000D03*
X112395000Y-120650000D03*
%TO.N,Net-(R3-Pad2)*%
X120650000Y-120650000D03*
X120650000Y-121920000D03*
%TO.N,Net-(R5-Pad2)*%
X128905000Y-120650000D03*
X128905000Y-121920000D03*
%TO.N,Net-(R7-Pad2)*%
X137160000Y-120650000D03*
X137160000Y-121920000D03*
%TO.N,Net-(R9-Pad2)*%
X145415000Y-120650000D03*
X145415000Y-121920000D03*
%TO.N,Net-(R11-Pad2)*%
X153670000Y-121920000D03*
X153670000Y-120650000D03*
%TO.N,Net-(R13-Pad2)*%
X161925000Y-120650000D03*
X161925000Y-121920000D03*
%TD*%
D15*
%TO.N,GND*%
X125730000Y-94615000D02*
X126365000Y-95250000D01*
X123825000Y-94615000D02*
X125730000Y-94615000D01*
D16*
%TO.N,Net-(J1-IO1)*%
X127000000Y-92075000D02*
X114935000Y-92075000D01*
%TO.N,Net-(J1-IO2)*%
X119380000Y-91440000D02*
X123190000Y-91440000D01*
%TO.N,Net-(J1-IO3)*%
X118110000Y-90170000D02*
X131445000Y-90170000D01*
%TO.N,Net-(J1-IO4)*%
X110490000Y-88900000D02*
X139700000Y-88900000D01*
%TO.N,Net-(J1-IO5)*%
X126365000Y-91440000D02*
X147955000Y-91440000D01*
%TO.N,Net-(J1-IO6)*%
X118745000Y-90805000D02*
X156210000Y-90805000D01*
%TO.N,Net-(J1-IO7)*%
X111125000Y-89535000D02*
X164465000Y-89535000D01*
%TO.N,Net-(J1-IO8)*%
X109855000Y-88230000D02*
X168910000Y-88230000D01*
X172050000Y-88230000D02*
X172085000Y-88265000D01*
X168910000Y-88230000D02*
X172050000Y-88230000D01*
D15*
%TO.N,+3.3V*%
X133355000Y-102865000D02*
X133360000Y-102870000D01*
X158120000Y-102865000D02*
X164490000Y-102865000D01*
X149865000Y-102875000D02*
X158110000Y-102875000D01*
X133350000Y-102870000D02*
X133355000Y-102865000D01*
X141610000Y-102870000D02*
X149860000Y-102870000D01*
X110490000Y-102870000D02*
X108605000Y-102870000D01*
X116845000Y-102870000D02*
X125095000Y-102870000D01*
X125095000Y-102870000D02*
X133350000Y-102870000D01*
X108605000Y-102870000D02*
X108585000Y-102890000D01*
X133360000Y-102870000D02*
X141610000Y-102870000D01*
X149860000Y-102870000D02*
X149865000Y-102875000D01*
X158110000Y-102875000D02*
X158120000Y-102865000D01*
X164490000Y-102865000D02*
X164495000Y-102870000D01*
X110490000Y-102870000D02*
X116845000Y-102870000D01*
X164495000Y-102870000D02*
X166375000Y-102870000D01*
D16*
%TO.N,Net-(J2-IO8)*%
X127635000Y-92710000D02*
X170175000Y-92710000D01*
%TO.N,Net-(J2-IO4)*%
X134620000Y-92075000D02*
X137155000Y-92075000D01*
%TO.N,Net-(J2-IO7)*%
X135255000Y-90170000D02*
X161920000Y-90170000D01*
%TO.N,Net-(J2-IO3)*%
X135890000Y-93345000D02*
X128900000Y-93345000D01*
%TO.N,Net-(J2-IO6)*%
X142875000Y-92075000D02*
X153665000Y-92075000D01*
%TO.N,Net-(J2-IO1)*%
X127000000Y-94615000D02*
X125730000Y-93345000D01*
X114935000Y-92710000D02*
X112385000Y-92710000D01*
X120015000Y-93345000D02*
X119380000Y-92710000D01*
X128905000Y-94615000D02*
X127000000Y-94615000D01*
X151130000Y-95250000D02*
X129540000Y-95250000D01*
X119380000Y-92710000D02*
X114935000Y-92710000D01*
X125730000Y-93345000D02*
X120015000Y-93345000D01*
X129540000Y-95250000D02*
X128905000Y-94615000D01*
%TO.N,Net-(J2-IO2)*%
X130175000Y-94615000D02*
X143510000Y-94615000D01*
X126365000Y-92710000D02*
X127635000Y-93980000D01*
X129540000Y-93980000D02*
X130175000Y-94615000D01*
X120645000Y-92710000D02*
X126365000Y-92710000D01*
X127635000Y-93980000D02*
X129540000Y-93980000D01*
%TO.N,Net-(J3-IO7)*%
X159385000Y-90805000D02*
X163830000Y-90805000D01*
%TO.N,Net-(J3-IO3)*%
X130810000Y-93980000D02*
X160020000Y-93980000D01*
%TO.N,Net-(J3-IO1)*%
X168910000Y-93980000D02*
X162560000Y-93980000D01*
X161290000Y-95250000D02*
X153670000Y-95250000D01*
X152400000Y-96520000D02*
X114300000Y-96520000D01*
X162560000Y-93980000D02*
X161290000Y-95250000D01*
X153670000Y-95250000D02*
X152400000Y-96520000D01*
%TO.N,Net-(J3-IO4)*%
X152400000Y-93345000D02*
X139065000Y-93345000D01*
%TO.N,Net-(J3-IO2)*%
X151765000Y-95885000D02*
X153035000Y-94615000D01*
X160655000Y-94615000D02*
X161925000Y-93345000D01*
X161925000Y-93345000D02*
X167640000Y-93345000D01*
X153035000Y-94615000D02*
X160655000Y-94615000D01*
X122555000Y-95885000D02*
X151765000Y-95885000D01*
%TO.N,Net-(J3-IO5)*%
X161925000Y-95885000D02*
X163195000Y-94615000D01*
X163195000Y-94615000D02*
X168275000Y-94615000D01*
X153035000Y-97155000D02*
X154305000Y-95885000D01*
X154305000Y-95885000D02*
X161925000Y-95885000D01*
X151130000Y-97155000D02*
X153035000Y-97155000D01*
X151130000Y-97155000D02*
X147320000Y-97155000D01*
%TO.N,Net-(J3-IO6)*%
X160655000Y-91440000D02*
X155575000Y-91440000D01*
%TO.N,Net-(J3-IO8)*%
X151765000Y-88900000D02*
X171450000Y-88900000D01*
%TO.N,Net-(R1-Pad2)*%
X112395000Y-120650000D02*
X112395000Y-121920000D01*
%TO.N,Net-(R3-Pad2)*%
X120650000Y-120650000D02*
X120650000Y-121920000D01*
%TO.N,Net-(R5-Pad2)*%
X128905000Y-120650000D02*
X128905000Y-121920000D01*
%TO.N,Net-(R7-Pad2)*%
X137160000Y-120650000D02*
X137160000Y-121920000D01*
%TO.N,Net-(R9-Pad2)*%
X145415000Y-120650000D02*
X145415000Y-121920000D01*
%TO.N,Net-(R11-Pad2)*%
X153670000Y-120650000D02*
X153670000Y-121920000D01*
%TO.N,Net-(R13-Pad2)*%
X161925000Y-120650000D02*
X161925000Y-121920000D01*
%TD*%
%TA.AperFunction,Conductor*%
%TO.N,GND*%
G36*
X113280000Y-77036988D02*
G01*
X113222993Y-77004075D01*
X113095826Y-76970000D01*
X112964174Y-76970000D01*
X112837007Y-77004075D01*
X112780000Y-77036988D01*
X112780000Y-75363012D01*
X112837007Y-75395925D01*
X112964174Y-75430000D01*
X113095826Y-75430000D01*
X113222993Y-75395925D01*
X113280000Y-75363012D01*
X113280000Y-77036988D01*
G37*
%TD.AperFunction*%
%TA.AperFunction,Conductor*%
G36*
X136140000Y-77036988D02*
G01*
X136082993Y-77004075D01*
X135955826Y-76970000D01*
X135824174Y-76970000D01*
X135697007Y-77004075D01*
X135640000Y-77036988D01*
X135640000Y-75363012D01*
X135697007Y-75395925D01*
X135824174Y-75430000D01*
X135955826Y-75430000D01*
X136082993Y-75395925D01*
X136140000Y-75363012D01*
X136140000Y-77036988D01*
G37*
%TD.AperFunction*%
%TA.AperFunction,Conductor*%
G36*
X159000000Y-77036988D02*
G01*
X158942993Y-77004075D01*
X158815826Y-76970000D01*
X158684174Y-76970000D01*
X158557007Y-77004075D01*
X158500000Y-77036988D01*
X158500000Y-75363012D01*
X158557007Y-75395925D01*
X158684174Y-75430000D01*
X158815826Y-75430000D01*
X158942993Y-75395925D01*
X159000000Y-75363012D01*
X159000000Y-77036988D01*
G37*
%TD.AperFunction*%
%TA.AperFunction,Conductor*%
G36*
X171454042Y-71620765D02*
G01*
X171476774Y-71622254D01*
X171708114Y-71637417D01*
X171724172Y-71639532D01*
X171969888Y-71688408D01*
X171985554Y-71692606D01*
X172136736Y-71743925D01*
X172222788Y-71773136D01*
X172237765Y-71779339D01*
X172455336Y-71886633D01*
X172462460Y-71890146D01*
X172476508Y-71898256D01*
X172684815Y-72037443D01*
X172697679Y-72047314D01*
X172886033Y-72212497D01*
X172897502Y-72223966D01*
X173062685Y-72412320D01*
X173072559Y-72425188D01*
X173211743Y-72633492D01*
X173219853Y-72647539D01*
X173330657Y-72872227D01*
X173336864Y-72887213D01*
X173417393Y-73124445D01*
X173421591Y-73140111D01*
X173470465Y-73385813D01*
X173472583Y-73401895D01*
X173489235Y-73655956D01*
X173489500Y-73664066D01*
X173489500Y-126360933D01*
X173489235Y-126369043D01*
X173472583Y-126623104D01*
X173470465Y-126639186D01*
X173421591Y-126884888D01*
X173417393Y-126900554D01*
X173336864Y-127137786D01*
X173330657Y-127152772D01*
X173219853Y-127377460D01*
X173211743Y-127391507D01*
X173072559Y-127599811D01*
X173062685Y-127612679D01*
X172897502Y-127801033D01*
X172886033Y-127812502D01*
X172697679Y-127977685D01*
X172684811Y-127987559D01*
X172476507Y-128126743D01*
X172462460Y-128134853D01*
X172237772Y-128245657D01*
X172222786Y-128251864D01*
X171985554Y-128332393D01*
X171969888Y-128336591D01*
X171724186Y-128385465D01*
X171708104Y-128387583D01*
X171454043Y-128404235D01*
X171445933Y-128404500D01*
X107954067Y-128404500D01*
X107945957Y-128404235D01*
X107691895Y-128387583D01*
X107675814Y-128385465D01*
X107640770Y-128378494D01*
X107430111Y-128336591D01*
X107414445Y-128332393D01*
X107177213Y-128251864D01*
X107162227Y-128245657D01*
X106937539Y-128134853D01*
X106923492Y-128126743D01*
X106715188Y-127987559D01*
X106702320Y-127977685D01*
X106513966Y-127812502D01*
X106502497Y-127801033D01*
X106337314Y-127612679D01*
X106327440Y-127599811D01*
X106188256Y-127391507D01*
X106180146Y-127377460D01*
X106069464Y-127153019D01*
X106069339Y-127152765D01*
X106063135Y-127137786D01*
X105982606Y-126900554D01*
X105978408Y-126884888D01*
X105969736Y-126841292D01*
X105929532Y-126639172D01*
X105927417Y-126623114D01*
X105910765Y-126369042D01*
X105910500Y-126360933D01*
X105910500Y-120649996D01*
X111589435Y-120649996D01*
X111589435Y-120650003D01*
X111609630Y-120829249D01*
X111609631Y-120829254D01*
X111669211Y-120999523D01*
X111765185Y-121152263D01*
X111767445Y-121155097D01*
X111768334Y-121157275D01*
X111768889Y-121158158D01*
X111768734Y-121158255D01*
X111793855Y-121219783D01*
X111794500Y-121232412D01*
X111794500Y-121337587D01*
X111774815Y-121404626D01*
X111767450Y-121414896D01*
X111765186Y-121417734D01*
X111669211Y-121570476D01*
X111609631Y-121740745D01*
X111609630Y-121740750D01*
X111589435Y-121919996D01*
X111589435Y-121920003D01*
X111609630Y-122099249D01*
X111609631Y-122099254D01*
X111669211Y-122269523D01*
X111765184Y-122422262D01*
X111892738Y-122549816D01*
X112045478Y-122645789D01*
X112215745Y-122705368D01*
X112215750Y-122705369D01*
X112394996Y-122725565D01*
X112395000Y-122725565D01*
X112395004Y-122725565D01*
X112574249Y-122705369D01*
X112574252Y-122705368D01*
X112574255Y-122705368D01*
X112744522Y-122645789D01*
X112897262Y-122549816D01*
X113024816Y-122422262D01*
X113120789Y-122269522D01*
X113180368Y-122099255D01*
X113200565Y-121920000D01*
X113180368Y-121740745D01*
X113120789Y-121570478D01*
X113024816Y-121417738D01*
X113024814Y-121417736D01*
X113024813Y-121417734D01*
X113022550Y-121414896D01*
X113021659Y-121412715D01*
X113021111Y-121411842D01*
X113021264Y-121411745D01*
X112996144Y-121350209D01*
X112995500Y-121337587D01*
X112995500Y-121232412D01*
X113015185Y-121165373D01*
X113022555Y-121155097D01*
X113024810Y-121152267D01*
X113024816Y-121152262D01*
X113120789Y-120999522D01*
X113180368Y-120829255D01*
X113200565Y-120650000D01*
X113200565Y-120649996D01*
X119844435Y-120649996D01*
X119844435Y-120650003D01*
X119864630Y-120829249D01*
X119864631Y-120829254D01*
X119924211Y-120999523D01*
X120020185Y-121152263D01*
X120022445Y-121155097D01*
X120023334Y-121157275D01*
X120023889Y-121158158D01*
X120023734Y-121158255D01*
X120048855Y-121219783D01*
X120049500Y-121232412D01*
X120049500Y-121337587D01*
X120029815Y-121404626D01*
X120022450Y-121414896D01*
X120020186Y-121417734D01*
X119924211Y-121570476D01*
X119864631Y-121740745D01*
X119864630Y-121740750D01*
X119844435Y-121919996D01*
X119844435Y-121920003D01*
X119864630Y-122099249D01*
X119864631Y-122099254D01*
X119924211Y-122269523D01*
X120020184Y-122422262D01*
X120147738Y-122549816D01*
X120300478Y-122645789D01*
X120470745Y-122705368D01*
X120470750Y-122705369D01*
X120649996Y-122725565D01*
X120650000Y-122725565D01*
X120650004Y-122725565D01*
X120829249Y-122705369D01*
X120829252Y-122705368D01*
X120829255Y-122705368D01*
X120999522Y-122645789D01*
X121152262Y-122549816D01*
X121279816Y-122422262D01*
X121375789Y-122269522D01*
X121435368Y-122099255D01*
X121455565Y-121920000D01*
X121435368Y-121740745D01*
X121375789Y-121570478D01*
X121279816Y-121417738D01*
X121279814Y-121417736D01*
X121279813Y-121417734D01*
X121277550Y-121414896D01*
X121276659Y-121412715D01*
X121276111Y-121411842D01*
X121276264Y-121411745D01*
X121251144Y-121350209D01*
X121250500Y-121337587D01*
X121250500Y-121232412D01*
X121270185Y-121165373D01*
X121277555Y-121155097D01*
X121279810Y-121152267D01*
X121279816Y-121152262D01*
X121375789Y-120999522D01*
X121435368Y-120829255D01*
X121455565Y-120650000D01*
X121455565Y-120649996D01*
X128099435Y-120649996D01*
X128099435Y-120650003D01*
X128119630Y-120829249D01*
X128119631Y-120829254D01*
X128179211Y-120999523D01*
X128275185Y-121152263D01*
X128277445Y-121155097D01*
X128278334Y-121157275D01*
X128278889Y-121158158D01*
X128278734Y-121158255D01*
X128303855Y-121219783D01*
X128304500Y-121232412D01*
X128304500Y-121337587D01*
X128284815Y-121404626D01*
X128277450Y-121414896D01*
X128275186Y-121417734D01*
X128179211Y-121570476D01*
X128119631Y-121740745D01*
X128119630Y-121740750D01*
X128099435Y-121919996D01*
X128099435Y-121920003D01*
X128119630Y-122099249D01*
X128119631Y-122099254D01*
X128179211Y-122269523D01*
X128275184Y-122422262D01*
X128402738Y-122549816D01*
X128555478Y-122645789D01*
X128725745Y-122705368D01*
X128725750Y-122705369D01*
X128904996Y-122725565D01*
X128905000Y-122725565D01*
X128905004Y-122725565D01*
X129084249Y-122705369D01*
X129084252Y-122705368D01*
X129084255Y-122705368D01*
X129254522Y-122645789D01*
X129407262Y-122549816D01*
X129534816Y-122422262D01*
X129630789Y-122269522D01*
X129690368Y-122099255D01*
X129710565Y-121920000D01*
X129690368Y-121740745D01*
X129630789Y-121570478D01*
X129534816Y-121417738D01*
X129534814Y-121417736D01*
X129534813Y-121417734D01*
X129532550Y-121414896D01*
X129531659Y-121412715D01*
X129531111Y-121411842D01*
X129531264Y-121411745D01*
X129506144Y-121350209D01*
X129505500Y-121337587D01*
X129505500Y-121232412D01*
X129525185Y-121165373D01*
X129532555Y-121155097D01*
X129534810Y-121152267D01*
X129534816Y-121152262D01*
X129630789Y-120999522D01*
X129690368Y-120829255D01*
X129710565Y-120650000D01*
X129710565Y-120649996D01*
X136354435Y-120649996D01*
X136354435Y-120650003D01*
X136374630Y-120829249D01*
X136374631Y-120829254D01*
X136434211Y-120999523D01*
X136530185Y-121152263D01*
X136532445Y-121155097D01*
X136533334Y-121157275D01*
X136533889Y-121158158D01*
X136533734Y-121158255D01*
X136558855Y-121219783D01*
X136559500Y-121232412D01*
X136559500Y-121337587D01*
X136539815Y-121404626D01*
X136532450Y-121414896D01*
X136530186Y-121417734D01*
X136434211Y-121570476D01*
X136374631Y-121740745D01*
X136374630Y-121740750D01*
X136354435Y-121919996D01*
X136354435Y-121920003D01*
X136374630Y-122099249D01*
X136374631Y-122099254D01*
X136434211Y-122269523D01*
X136530184Y-122422262D01*
X136657738Y-122549816D01*
X136810478Y-122645789D01*
X136980745Y-122705368D01*
X136980750Y-122705369D01*
X137159996Y-122725565D01*
X137160000Y-122725565D01*
X137160004Y-122725565D01*
X137339249Y-122705369D01*
X137339252Y-122705368D01*
X137339255Y-122705368D01*
X137509522Y-122645789D01*
X137662262Y-122549816D01*
X137789816Y-122422262D01*
X137885789Y-122269522D01*
X137945368Y-122099255D01*
X137965565Y-121920000D01*
X137945368Y-121740745D01*
X137885789Y-121570478D01*
X137789816Y-121417738D01*
X137789814Y-121417736D01*
X137789813Y-121417734D01*
X137787550Y-121414896D01*
X137786659Y-121412715D01*
X137786111Y-121411842D01*
X137786264Y-121411745D01*
X137761144Y-121350209D01*
X137760500Y-121337587D01*
X137760500Y-121232412D01*
X137780185Y-121165373D01*
X137787555Y-121155097D01*
X137789810Y-121152267D01*
X137789816Y-121152262D01*
X137885789Y-120999522D01*
X137945368Y-120829255D01*
X137965565Y-120650000D01*
X137965565Y-120649996D01*
X144609435Y-120649996D01*
X144609435Y-120650003D01*
X144629630Y-120829249D01*
X144629631Y-120829254D01*
X144689211Y-120999523D01*
X144785185Y-121152263D01*
X144787445Y-121155097D01*
X144788334Y-121157275D01*
X144788889Y-121158158D01*
X144788734Y-121158255D01*
X144813855Y-121219783D01*
X144814500Y-121232412D01*
X144814500Y-121337587D01*
X144794815Y-121404626D01*
X144787450Y-121414896D01*
X144785186Y-121417734D01*
X144689211Y-121570476D01*
X144629631Y-121740745D01*
X144629630Y-121740750D01*
X144609435Y-121919996D01*
X144609435Y-121920003D01*
X144629630Y-122099249D01*
X144629631Y-122099254D01*
X144689211Y-122269523D01*
X144785184Y-122422262D01*
X144912738Y-122549816D01*
X145065478Y-122645789D01*
X145235745Y-122705368D01*
X145235750Y-122705369D01*
X145414996Y-122725565D01*
X145415000Y-122725565D01*
X145415004Y-122725565D01*
X145594249Y-122705369D01*
X145594252Y-122705368D01*
X145594255Y-122705368D01*
X145764522Y-122645789D01*
X145917262Y-122549816D01*
X146044816Y-122422262D01*
X146140789Y-122269522D01*
X146200368Y-122099255D01*
X146220565Y-121920000D01*
X146200368Y-121740745D01*
X146140789Y-121570478D01*
X146044816Y-121417738D01*
X146044814Y-121417736D01*
X146044813Y-121417734D01*
X146042550Y-121414896D01*
X146041659Y-121412715D01*
X146041111Y-121411842D01*
X146041264Y-121411745D01*
X146016144Y-121350209D01*
X146015500Y-121337587D01*
X146015500Y-121232412D01*
X146035185Y-121165373D01*
X146042555Y-121155097D01*
X146044810Y-121152267D01*
X146044816Y-121152262D01*
X146140789Y-120999522D01*
X146200368Y-120829255D01*
X146220565Y-120650000D01*
X146220565Y-120649996D01*
X152864435Y-120649996D01*
X152864435Y-120650003D01*
X152884630Y-120829249D01*
X152884631Y-120829254D01*
X152944211Y-120999523D01*
X153040185Y-121152263D01*
X153042445Y-121155097D01*
X153043334Y-121157275D01*
X153043889Y-121158158D01*
X153043734Y-121158255D01*
X153068855Y-121219783D01*
X153069500Y-121232412D01*
X153069500Y-121337587D01*
X153049815Y-121404626D01*
X153042450Y-121414896D01*
X153040186Y-121417734D01*
X152944211Y-121570476D01*
X152884631Y-121740745D01*
X152884630Y-121740750D01*
X152864435Y-121919996D01*
X152864435Y-121920003D01*
X152884630Y-122099249D01*
X152884631Y-122099254D01*
X152944211Y-122269523D01*
X153040184Y-122422262D01*
X153167738Y-122549816D01*
X153320478Y-122645789D01*
X153490745Y-122705368D01*
X153490750Y-122705369D01*
X153669996Y-122725565D01*
X153670000Y-122725565D01*
X153670004Y-122725565D01*
X153849249Y-122705369D01*
X153849252Y-122705368D01*
X153849255Y-122705368D01*
X154019522Y-122645789D01*
X154172262Y-122549816D01*
X154299816Y-122422262D01*
X154395789Y-122269522D01*
X154455368Y-122099255D01*
X154475565Y-121920000D01*
X154455368Y-121740745D01*
X154395789Y-121570478D01*
X154299816Y-121417738D01*
X154299814Y-121417736D01*
X154299813Y-121417734D01*
X154297550Y-121414896D01*
X154296659Y-121412715D01*
X154296111Y-121411842D01*
X154296264Y-121411745D01*
X154271144Y-121350209D01*
X154270500Y-121337587D01*
X154270500Y-121232412D01*
X154290185Y-121165373D01*
X154297555Y-121155097D01*
X154299810Y-121152267D01*
X154299816Y-121152262D01*
X154395789Y-120999522D01*
X154455368Y-120829255D01*
X154475565Y-120650000D01*
X154475565Y-120649996D01*
X161119435Y-120649996D01*
X161119435Y-120650003D01*
X161139630Y-120829249D01*
X161139631Y-120829254D01*
X161199211Y-120999523D01*
X161295185Y-121152263D01*
X161297445Y-121155097D01*
X161298334Y-121157275D01*
X161298889Y-121158158D01*
X161298734Y-121158255D01*
X161323855Y-121219783D01*
X161324500Y-121232412D01*
X161324500Y-121337587D01*
X161304815Y-121404626D01*
X161297450Y-121414896D01*
X161295186Y-121417734D01*
X161199211Y-121570476D01*
X161139631Y-121740745D01*
X161139630Y-121740750D01*
X161119435Y-121919996D01*
X161119435Y-121920003D01*
X161139630Y-122099249D01*
X161139631Y-122099254D01*
X161199211Y-122269523D01*
X161295184Y-122422262D01*
X161422738Y-122549816D01*
X161575478Y-122645789D01*
X161745745Y-122705368D01*
X161745750Y-122705369D01*
X161924996Y-122725565D01*
X161925000Y-122725565D01*
X161925004Y-122725565D01*
X162104249Y-122705369D01*
X162104252Y-122705368D01*
X162104255Y-122705368D01*
X162274522Y-122645789D01*
X162427262Y-122549816D01*
X162554816Y-122422262D01*
X162650789Y-122269522D01*
X162710368Y-122099255D01*
X162730565Y-121920000D01*
X162710368Y-121740745D01*
X162650789Y-121570478D01*
X162554816Y-121417738D01*
X162554814Y-121417736D01*
X162554813Y-121417734D01*
X162552550Y-121414896D01*
X162551659Y-121412715D01*
X162551111Y-121411842D01*
X162551264Y-121411745D01*
X162526144Y-121350209D01*
X162525500Y-121337587D01*
X162525500Y-121232412D01*
X162545185Y-121165373D01*
X162552555Y-121155097D01*
X162554810Y-121152267D01*
X162554816Y-121152262D01*
X162650789Y-120999522D01*
X162710368Y-120829255D01*
X162730565Y-120650000D01*
X162710368Y-120470745D01*
X162650789Y-120300478D01*
X162554816Y-120147738D01*
X162427262Y-120020184D01*
X162274523Y-119924211D01*
X162104254Y-119864631D01*
X162104249Y-119864630D01*
X161925004Y-119844435D01*
X161924996Y-119844435D01*
X161745750Y-119864630D01*
X161745745Y-119864631D01*
X161575476Y-119924211D01*
X161422737Y-120020184D01*
X161295184Y-120147737D01*
X161199211Y-120300476D01*
X161139631Y-120470745D01*
X161139630Y-120470750D01*
X161119435Y-120649996D01*
X154475565Y-120649996D01*
X154455368Y-120470745D01*
X154395789Y-120300478D01*
X154299816Y-120147738D01*
X154172262Y-120020184D01*
X154019523Y-119924211D01*
X153849254Y-119864631D01*
X153849249Y-119864630D01*
X153670004Y-119844435D01*
X153669996Y-119844435D01*
X153490750Y-119864630D01*
X153490745Y-119864631D01*
X153320476Y-119924211D01*
X153167737Y-120020184D01*
X153040184Y-120147737D01*
X152944211Y-120300476D01*
X152884631Y-120470745D01*
X152884630Y-120470750D01*
X152864435Y-120649996D01*
X146220565Y-120649996D01*
X146200368Y-120470745D01*
X146140789Y-120300478D01*
X146044816Y-120147738D01*
X145917262Y-120020184D01*
X145764523Y-119924211D01*
X145594254Y-119864631D01*
X145594249Y-119864630D01*
X145415004Y-119844435D01*
X145414996Y-119844435D01*
X145235750Y-119864630D01*
X145235745Y-119864631D01*
X145065476Y-119924211D01*
X144912737Y-120020184D01*
X144785184Y-120147737D01*
X144689211Y-120300476D01*
X144629631Y-120470745D01*
X144629630Y-120470750D01*
X144609435Y-120649996D01*
X137965565Y-120649996D01*
X137945368Y-120470745D01*
X137885789Y-120300478D01*
X137789816Y-120147738D01*
X137662262Y-120020184D01*
X137509523Y-119924211D01*
X137339254Y-119864631D01*
X137339249Y-119864630D01*
X137160004Y-119844435D01*
X137159996Y-119844435D01*
X136980750Y-119864630D01*
X136980745Y-119864631D01*
X136810476Y-119924211D01*
X136657737Y-120020184D01*
X136530184Y-120147737D01*
X136434211Y-120300476D01*
X136374631Y-120470745D01*
X136374630Y-120470750D01*
X136354435Y-120649996D01*
X129710565Y-120649996D01*
X129690368Y-120470745D01*
X129630789Y-120300478D01*
X129534816Y-120147738D01*
X129407262Y-120020184D01*
X129254523Y-119924211D01*
X129084254Y-119864631D01*
X129084249Y-119864630D01*
X128905004Y-119844435D01*
X128904996Y-119844435D01*
X128725750Y-119864630D01*
X128725745Y-119864631D01*
X128555476Y-119924211D01*
X128402737Y-120020184D01*
X128275184Y-120147737D01*
X128179211Y-120300476D01*
X128119631Y-120470745D01*
X128119630Y-120470750D01*
X128099435Y-120649996D01*
X121455565Y-120649996D01*
X121435368Y-120470745D01*
X121375789Y-120300478D01*
X121279816Y-120147738D01*
X121152262Y-120020184D01*
X120999523Y-119924211D01*
X120829254Y-119864631D01*
X120829249Y-119864630D01*
X120650004Y-119844435D01*
X120649996Y-119844435D01*
X120470750Y-119864630D01*
X120470745Y-119864631D01*
X120300476Y-119924211D01*
X120147737Y-120020184D01*
X120020184Y-120147737D01*
X119924211Y-120300476D01*
X119864631Y-120470745D01*
X119864630Y-120470750D01*
X119844435Y-120649996D01*
X113200565Y-120649996D01*
X113180368Y-120470745D01*
X113120789Y-120300478D01*
X113024816Y-120147738D01*
X112897262Y-120020184D01*
X112744523Y-119924211D01*
X112574254Y-119864631D01*
X112574249Y-119864630D01*
X112395004Y-119844435D01*
X112394996Y-119844435D01*
X112215750Y-119864630D01*
X112215745Y-119864631D01*
X112045476Y-119924211D01*
X111892737Y-120020184D01*
X111765184Y-120147737D01*
X111669211Y-120300476D01*
X111609631Y-120470745D01*
X111609630Y-120470750D01*
X111589435Y-120649996D01*
X105910500Y-120649996D01*
X105910500Y-102890000D01*
X107679540Y-102890000D01*
X107699326Y-103078256D01*
X107699327Y-103078259D01*
X107757818Y-103258277D01*
X107757821Y-103258284D01*
X107852467Y-103422216D01*
X107956615Y-103537884D01*
X107979129Y-103562888D01*
X108132265Y-103674148D01*
X108132270Y-103674151D01*
X108305192Y-103751142D01*
X108305197Y-103751144D01*
X108490354Y-103790500D01*
X108490355Y-103790500D01*
X108679644Y-103790500D01*
X108679646Y-103790500D01*
X108864803Y-103751144D01*
X109037730Y-103674151D01*
X109190871Y-103562888D01*
X109210106Y-103541526D01*
X109214607Y-103536527D01*
X109274094Y-103499879D01*
X109306756Y-103495500D01*
X110428394Y-103495500D01*
X116141252Y-103495500D01*
X116208291Y-103515185D01*
X116233400Y-103536526D01*
X116239126Y-103542885D01*
X116239130Y-103542889D01*
X116392265Y-103654148D01*
X116392270Y-103654151D01*
X116565192Y-103731142D01*
X116565197Y-103731144D01*
X116750354Y-103770500D01*
X116750355Y-103770500D01*
X116939644Y-103770500D01*
X116939646Y-103770500D01*
X117124803Y-103731144D01*
X117297730Y-103654151D01*
X117450871Y-103542888D01*
X117455377Y-103537884D01*
X117456600Y-103536526D01*
X117516087Y-103499879D01*
X117548748Y-103495500D01*
X124391252Y-103495500D01*
X124458291Y-103515185D01*
X124483400Y-103536526D01*
X124489126Y-103542885D01*
X124489130Y-103542889D01*
X124642265Y-103654148D01*
X124642270Y-103654151D01*
X124815192Y-103731142D01*
X124815197Y-103731144D01*
X125000354Y-103770500D01*
X125000355Y-103770500D01*
X125189644Y-103770500D01*
X125189646Y-103770500D01*
X125374803Y-103731144D01*
X125547730Y-103654151D01*
X125700871Y-103542888D01*
X125705377Y-103537884D01*
X125706600Y-103536526D01*
X125766087Y-103499879D01*
X125798748Y-103495500D01*
X132655754Y-103495500D01*
X132722793Y-103515185D01*
X132747901Y-103536525D01*
X132749125Y-103537884D01*
X132749130Y-103537889D01*
X132902265Y-103649148D01*
X132902270Y-103649151D01*
X133075192Y-103726142D01*
X133075197Y-103726144D01*
X133260354Y-103765500D01*
X133260355Y-103765500D01*
X133449644Y-103765500D01*
X133449646Y-103765500D01*
X133634803Y-103726144D01*
X133807730Y-103649151D01*
X133960871Y-103537888D01*
X133961415Y-103537283D01*
X133962099Y-103536525D01*
X133963003Y-103535967D01*
X133965701Y-103533539D01*
X133966145Y-103534032D01*
X134021587Y-103499878D01*
X134054246Y-103495500D01*
X140906252Y-103495500D01*
X140973291Y-103515185D01*
X140998400Y-103536526D01*
X141004126Y-103542885D01*
X141004130Y-103542889D01*
X141157265Y-103654148D01*
X141157270Y-103654151D01*
X141330192Y-103731142D01*
X141330197Y-103731144D01*
X141515354Y-103770500D01*
X141515355Y-103770500D01*
X141704644Y-103770500D01*
X141704646Y-103770500D01*
X141889803Y-103731144D01*
X142062730Y-103654151D01*
X142215871Y-103542888D01*
X142220377Y-103537884D01*
X142221600Y-103536526D01*
X142281087Y-103499879D01*
X142313748Y-103495500D01*
X149156750Y-103495500D01*
X149223789Y-103515185D01*
X149248896Y-103536524D01*
X149259129Y-103547888D01*
X149259132Y-103547891D01*
X149259135Y-103547893D01*
X149412265Y-103659148D01*
X149412270Y-103659151D01*
X149585192Y-103736142D01*
X149585197Y-103736144D01*
X149770354Y-103775500D01*
X149770355Y-103775500D01*
X149959644Y-103775500D01*
X149959646Y-103775500D01*
X150144803Y-103736144D01*
X150317730Y-103659151D01*
X150470871Y-103547888D01*
X150475376Y-103542885D01*
X150476600Y-103541526D01*
X150536087Y-103504879D01*
X150568748Y-103500500D01*
X157425256Y-103500500D01*
X157492295Y-103520185D01*
X157508740Y-103534159D01*
X157509299Y-103533539D01*
X157514130Y-103537889D01*
X157667265Y-103649148D01*
X157667270Y-103649151D01*
X157840192Y-103726142D01*
X157840197Y-103726144D01*
X158025354Y-103765500D01*
X158025355Y-103765500D01*
X158214644Y-103765500D01*
X158214646Y-103765500D01*
X158399803Y-103726144D01*
X158572730Y-103649151D01*
X158725871Y-103537888D01*
X158729787Y-103533539D01*
X158731600Y-103531526D01*
X158791087Y-103494879D01*
X158823748Y-103490500D01*
X164396044Y-103490500D01*
X164420236Y-103492883D01*
X164433391Y-103495499D01*
X164433392Y-103495500D01*
X164433393Y-103495500D01*
X164433394Y-103495500D01*
X165671252Y-103495500D01*
X165738291Y-103515185D01*
X165763400Y-103536526D01*
X165769126Y-103542885D01*
X165769130Y-103542889D01*
X165922265Y-103654148D01*
X165922270Y-103654151D01*
X166095192Y-103731142D01*
X166095197Y-103731144D01*
X166280354Y-103770500D01*
X166280355Y-103770500D01*
X166469644Y-103770500D01*
X166469646Y-103770500D01*
X166654803Y-103731144D01*
X166827730Y-103654151D01*
X166980871Y-103542888D01*
X167107533Y-103402216D01*
X167202179Y-103238284D01*
X167260674Y-103058256D01*
X167280460Y-102870000D01*
X167260674Y-102681744D01*
X167202179Y-102501716D01*
X167107533Y-102337784D01*
X166980871Y-102197112D01*
X166980870Y-102197111D01*
X166827734Y-102085851D01*
X166827729Y-102085848D01*
X166654807Y-102008857D01*
X166654802Y-102008855D01*
X166493169Y-101974500D01*
X166469646Y-101969500D01*
X166280354Y-101969500D01*
X166256831Y-101974500D01*
X166095197Y-102008855D01*
X166095192Y-102008857D01*
X165922270Y-102085848D01*
X165922265Y-102085851D01*
X165769130Y-102197110D01*
X165769126Y-102197114D01*
X165763400Y-102203474D01*
X165703913Y-102240121D01*
X165671252Y-102244500D01*
X164588956Y-102244500D01*
X164564764Y-102242117D01*
X164551608Y-102239500D01*
X164551607Y-102239500D01*
X164551606Y-102239500D01*
X158823748Y-102239500D01*
X158756709Y-102219815D01*
X158731600Y-102198474D01*
X158725873Y-102192114D01*
X158725869Y-102192110D01*
X158572734Y-102080851D01*
X158572729Y-102080848D01*
X158399807Y-102003857D01*
X158399802Y-102003855D01*
X158238169Y-101969500D01*
X158214646Y-101964500D01*
X158025354Y-101964500D01*
X158001831Y-101969500D01*
X157840197Y-102003855D01*
X157840192Y-102003857D01*
X157667270Y-102080848D01*
X157667265Y-102080851D01*
X157514135Y-102192106D01*
X157514128Y-102192112D01*
X157499397Y-102208473D01*
X157439910Y-102245121D01*
X157407248Y-102249500D01*
X150568748Y-102249500D01*
X150501709Y-102229815D01*
X150476600Y-102208474D01*
X150470873Y-102202114D01*
X150470869Y-102202110D01*
X150317734Y-102090851D01*
X150317729Y-102090848D01*
X150144807Y-102013857D01*
X150144802Y-102013855D01*
X149999001Y-101982865D01*
X149959646Y-101974500D01*
X149770354Y-101974500D01*
X149737897Y-101981398D01*
X149585197Y-102013855D01*
X149585192Y-102013857D01*
X149412270Y-102090848D01*
X149412265Y-102090851D01*
X149259130Y-102202110D01*
X149259125Y-102202115D01*
X149257901Y-102203475D01*
X149256996Y-102204032D01*
X149254299Y-102206461D01*
X149253854Y-102205967D01*
X149198413Y-102240122D01*
X149165754Y-102244500D01*
X142313748Y-102244500D01*
X142246709Y-102224815D01*
X142221600Y-102203474D01*
X142215873Y-102197114D01*
X142215869Y-102197110D01*
X142062734Y-102085851D01*
X142062729Y-102085848D01*
X141889807Y-102008857D01*
X141889802Y-102008855D01*
X141728169Y-101974500D01*
X141704646Y-101969500D01*
X141515354Y-101969500D01*
X141491831Y-101974500D01*
X141330197Y-102008855D01*
X141330192Y-102008857D01*
X141157270Y-102085848D01*
X141157265Y-102085851D01*
X141004130Y-102197110D01*
X141004126Y-102197114D01*
X140998400Y-102203474D01*
X140938913Y-102240121D01*
X140906252Y-102244500D01*
X134063250Y-102244500D01*
X133996211Y-102224815D01*
X133971103Y-102203475D01*
X133960871Y-102192112D01*
X133960869Y-102192111D01*
X133960867Y-102192108D01*
X133960864Y-102192106D01*
X133807734Y-102080851D01*
X133807729Y-102080848D01*
X133634807Y-102003857D01*
X133634802Y-102003855D01*
X133473169Y-101969500D01*
X133449646Y-101964500D01*
X133260354Y-101964500D01*
X133236831Y-101969500D01*
X133075197Y-102003855D01*
X133075192Y-102003857D01*
X132902270Y-102080848D01*
X132902265Y-102080851D01*
X132749135Y-102192106D01*
X132749132Y-102192108D01*
X132749127Y-102192114D01*
X132738897Y-102203474D01*
X132679411Y-102240121D01*
X132646750Y-102244500D01*
X125798748Y-102244500D01*
X125731709Y-102224815D01*
X125706600Y-102203474D01*
X125700873Y-102197114D01*
X125700869Y-102197110D01*
X125547734Y-102085851D01*
X125547729Y-102085848D01*
X125374807Y-102008857D01*
X125374802Y-102008855D01*
X125213169Y-101974500D01*
X125189646Y-101969500D01*
X125000354Y-101969500D01*
X124976831Y-101974500D01*
X124815197Y-102008855D01*
X124815192Y-102008857D01*
X124642270Y-102085848D01*
X124642265Y-102085851D01*
X124489130Y-102197110D01*
X124489126Y-102197114D01*
X124483400Y-102203474D01*
X124423913Y-102240121D01*
X124391252Y-102244500D01*
X117548748Y-102244500D01*
X117481709Y-102224815D01*
X117456600Y-102203474D01*
X117450873Y-102197114D01*
X117450869Y-102197110D01*
X117297734Y-102085851D01*
X117297729Y-102085848D01*
X117124807Y-102008857D01*
X117124802Y-102008855D01*
X116963169Y-101974500D01*
X116939646Y-101969500D01*
X116750354Y-101969500D01*
X116726831Y-101974500D01*
X116565197Y-102008855D01*
X116565192Y-102008857D01*
X116392270Y-102085848D01*
X116392265Y-102085851D01*
X116239130Y-102197110D01*
X116239126Y-102197114D01*
X116233400Y-102203474D01*
X116173913Y-102240121D01*
X116141252Y-102244500D01*
X109268857Y-102244500D01*
X109201818Y-102224815D01*
X109195972Y-102220818D01*
X109037734Y-102105851D01*
X109037729Y-102105848D01*
X108864807Y-102028857D01*
X108864802Y-102028855D01*
X108719001Y-101997865D01*
X108679646Y-101989500D01*
X108490354Y-101989500D01*
X108457897Y-101996398D01*
X108305197Y-102028855D01*
X108305192Y-102028857D01*
X108132270Y-102105848D01*
X108132265Y-102105851D01*
X107979129Y-102217111D01*
X107852466Y-102357785D01*
X107757821Y-102521715D01*
X107757818Y-102521722D01*
X107705824Y-102681744D01*
X107699326Y-102701744D01*
X107679540Y-102890000D01*
X105910500Y-102890000D01*
X105910500Y-88229996D01*
X109049435Y-88229996D01*
X109049435Y-88230003D01*
X109069630Y-88409249D01*
X109069631Y-88409254D01*
X109129211Y-88579523D01*
X109225184Y-88732262D01*
X109352738Y-88859816D01*
X109471597Y-88934500D01*
X109505478Y-88955789D01*
X109626824Y-88998250D01*
X109683601Y-89038972D01*
X109702912Y-89074338D01*
X109764210Y-89249521D01*
X109764211Y-89249522D01*
X109860184Y-89402262D01*
X109987738Y-89529816D01*
X110116330Y-89610616D01*
X110140478Y-89625789D01*
X110275779Y-89673133D01*
X110332556Y-89713855D01*
X110351867Y-89749221D01*
X110399210Y-89884521D01*
X110495184Y-90037262D01*
X110622738Y-90164816D01*
X110775478Y-90260789D01*
X110945745Y-90320368D01*
X110945750Y-90320369D01*
X111124996Y-90340565D01*
X111125000Y-90340565D01*
X111125004Y-90340565D01*
X111304249Y-90320369D01*
X111304252Y-90320368D01*
X111304255Y-90320368D01*
X111474522Y-90260789D01*
X111627262Y-90164816D01*
X111627267Y-90164810D01*
X111630097Y-90162555D01*
X111632275Y-90161665D01*
X111633158Y-90161111D01*
X111633255Y-90161265D01*
X111694783Y-90136145D01*
X111707412Y-90135500D01*
X117189734Y-90135500D01*
X117256773Y-90155185D01*
X117302528Y-90207989D01*
X117312954Y-90245616D01*
X117324630Y-90349250D01*
X117324631Y-90349254D01*
X117384211Y-90519523D01*
X117480184Y-90672262D01*
X117607738Y-90799816D01*
X117670895Y-90839500D01*
X117760478Y-90895789D01*
X117895779Y-90943133D01*
X117952556Y-90983855D01*
X117971867Y-91019221D01*
X118019210Y-91154521D01*
X118100899Y-91284528D01*
X118119899Y-91351765D01*
X118099531Y-91418600D01*
X118046263Y-91463814D01*
X117995905Y-91474500D01*
X115517412Y-91474500D01*
X115450373Y-91454815D01*
X115440097Y-91447445D01*
X115437263Y-91445185D01*
X115437262Y-91445184D01*
X115374105Y-91405500D01*
X115284523Y-91349211D01*
X115114254Y-91289631D01*
X115114249Y-91289630D01*
X114935004Y-91269435D01*
X114934996Y-91269435D01*
X114755750Y-91289630D01*
X114755745Y-91289631D01*
X114585476Y-91349211D01*
X114432737Y-91445184D01*
X114305184Y-91572737D01*
X114209211Y-91725476D01*
X114149631Y-91895745D01*
X114149630Y-91895749D01*
X114137954Y-91999384D01*
X114110887Y-92063798D01*
X114053292Y-92103353D01*
X114014734Y-92109500D01*
X112967412Y-92109500D01*
X112900373Y-92089815D01*
X112890097Y-92082445D01*
X112887263Y-92080185D01*
X112887262Y-92080184D01*
X112758670Y-91999384D01*
X112734523Y-91984211D01*
X112564254Y-91924631D01*
X112564249Y-91924630D01*
X112385004Y-91904435D01*
X112384996Y-91904435D01*
X112205750Y-91924630D01*
X112205745Y-91924631D01*
X112035476Y-91984211D01*
X111882737Y-92080184D01*
X111755184Y-92207737D01*
X111659211Y-92360476D01*
X111599631Y-92530745D01*
X111599630Y-92530750D01*
X111579435Y-92709996D01*
X111579435Y-92710003D01*
X111599630Y-92889249D01*
X111599631Y-92889254D01*
X111659211Y-93059523D01*
X111755184Y-93212262D01*
X111882738Y-93339816D01*
X112035478Y-93435789D01*
X112205745Y-93495368D01*
X112205750Y-93495369D01*
X112384996Y-93515565D01*
X112385000Y-93515565D01*
X112385004Y-93515565D01*
X112564249Y-93495369D01*
X112564252Y-93495368D01*
X112564255Y-93495368D01*
X112734522Y-93435789D01*
X112887262Y-93339816D01*
X112887267Y-93339810D01*
X112890097Y-93337555D01*
X112892275Y-93336665D01*
X112893158Y-93336111D01*
X112893255Y-93336265D01*
X112954783Y-93311145D01*
X112967412Y-93310500D01*
X114855943Y-93310500D01*
X119079903Y-93310500D01*
X119146942Y-93330185D01*
X119167583Y-93346818D01*
X119646284Y-93825520D01*
X119646286Y-93825521D01*
X119646290Y-93825524D01*
X119783209Y-93904573D01*
X119783216Y-93904577D01*
X119935943Y-93945501D01*
X119935945Y-93945501D01*
X120101654Y-93945501D01*
X120101670Y-93945500D01*
X125429903Y-93945500D01*
X125496942Y-93965185D01*
X125517584Y-93981819D01*
X126515139Y-94979374D01*
X126515149Y-94979385D01*
X126519479Y-94983715D01*
X126519480Y-94983716D01*
X126608584Y-95072820D01*
X126642068Y-95134141D01*
X126637084Y-95203833D01*
X126595213Y-95259767D01*
X126529749Y-95284184D01*
X126520902Y-95284500D01*
X123137412Y-95284500D01*
X123070373Y-95264815D01*
X123060097Y-95257445D01*
X123057263Y-95255185D01*
X123057262Y-95255184D01*
X122994105Y-95215500D01*
X122904523Y-95159211D01*
X122734254Y-95099631D01*
X122734249Y-95099630D01*
X122555004Y-95079435D01*
X122554996Y-95079435D01*
X122375750Y-95099630D01*
X122375745Y-95099631D01*
X122205476Y-95159211D01*
X122052737Y-95255184D01*
X121925184Y-95382737D01*
X121829211Y-95535476D01*
X121769631Y-95705745D01*
X121769630Y-95705749D01*
X121757954Y-95809384D01*
X121730887Y-95873798D01*
X121673292Y-95913353D01*
X121634734Y-95919500D01*
X114882412Y-95919500D01*
X114815373Y-95899815D01*
X114805097Y-95892445D01*
X114802263Y-95890185D01*
X114802262Y-95890184D01*
X114673670Y-95809384D01*
X114649523Y-95794211D01*
X114479254Y-95734631D01*
X114479249Y-95734630D01*
X114300004Y-95714435D01*
X114299996Y-95714435D01*
X114120750Y-95734630D01*
X114120745Y-95734631D01*
X113950476Y-95794211D01*
X113797737Y-95890184D01*
X113670184Y-96017737D01*
X113574211Y-96170476D01*
X113514631Y-96340745D01*
X113514630Y-96340750D01*
X113494435Y-96519996D01*
X113494435Y-96520003D01*
X113514630Y-96699249D01*
X113514631Y-96699254D01*
X113574211Y-96869523D01*
X113670184Y-97022262D01*
X113797738Y-97149816D01*
X113950478Y-97245789D01*
X114120745Y-97305368D01*
X114120750Y-97305369D01*
X114299996Y-97325565D01*
X114300000Y-97325565D01*
X114300004Y-97325565D01*
X114479249Y-97305369D01*
X114479252Y-97305368D01*
X114479255Y-97305368D01*
X114649522Y-97245789D01*
X114802262Y-97149816D01*
X114802267Y-97149810D01*
X114805097Y-97147555D01*
X114807275Y-97146665D01*
X114808158Y-97146111D01*
X114808255Y-97146265D01*
X114869783Y-97121145D01*
X114882412Y-97120500D01*
X146399734Y-97120500D01*
X146466773Y-97140185D01*
X146512528Y-97192989D01*
X146522954Y-97230616D01*
X146534630Y-97334250D01*
X146534631Y-97334254D01*
X146594211Y-97504523D01*
X146690184Y-97657262D01*
X146817738Y-97784816D01*
X146970478Y-97880789D01*
X147140745Y-97940368D01*
X147140750Y-97940369D01*
X147319996Y-97960565D01*
X147320000Y-97960565D01*
X147320004Y-97960565D01*
X147499249Y-97940369D01*
X147499252Y-97940368D01*
X147499255Y-97940368D01*
X147669522Y-97880789D01*
X147822262Y-97784816D01*
X147822267Y-97784810D01*
X147825097Y-97782555D01*
X147827275Y-97781665D01*
X147828158Y-97781111D01*
X147828255Y-97781265D01*
X147889783Y-97756145D01*
X147902412Y-97755500D01*
X151050943Y-97755500D01*
X152948331Y-97755500D01*
X152948347Y-97755501D01*
X152955943Y-97755501D01*
X153114054Y-97755501D01*
X153114057Y-97755501D01*
X153266785Y-97714577D01*
X153316904Y-97685639D01*
X153403716Y-97635520D01*
X153515520Y-97523716D01*
X153515520Y-97523714D01*
X153525728Y-97513507D01*
X153525729Y-97513504D01*
X154517416Y-96521819D01*
X154578739Y-96488334D01*
X154605097Y-96485500D01*
X161838331Y-96485500D01*
X161838347Y-96485501D01*
X161845943Y-96485501D01*
X162004054Y-96485501D01*
X162004057Y-96485501D01*
X162156785Y-96444577D01*
X162206904Y-96415639D01*
X162293716Y-96365520D01*
X162405520Y-96253716D01*
X162405520Y-96253714D01*
X162415728Y-96243507D01*
X162415729Y-96243504D01*
X163407416Y-95251819D01*
X163468739Y-95218334D01*
X163495097Y-95215500D01*
X167692588Y-95215500D01*
X167759627Y-95235185D01*
X167769903Y-95242555D01*
X167772736Y-95244814D01*
X167772738Y-95244816D01*
X167925478Y-95340789D01*
X168095745Y-95400368D01*
X168095750Y-95400369D01*
X168274996Y-95420565D01*
X168275000Y-95420565D01*
X168275004Y-95420565D01*
X168454249Y-95400369D01*
X168454252Y-95400368D01*
X168454255Y-95400368D01*
X168624522Y-95340789D01*
X168777262Y-95244816D01*
X168904816Y-95117262D01*
X169000789Y-94964522D01*
X169048133Y-94829218D01*
X169088853Y-94772444D01*
X169124216Y-94753134D01*
X169224737Y-94717960D01*
X169259520Y-94705790D01*
X169259522Y-94705789D01*
X169412262Y-94609816D01*
X169539816Y-94482262D01*
X169635789Y-94329522D01*
X169695368Y-94159255D01*
X169715565Y-93980000D01*
X169707066Y-93904573D01*
X169695369Y-93800750D01*
X169695368Y-93800745D01*
X169635788Y-93630475D01*
X169598944Y-93571840D01*
X169579943Y-93504604D01*
X169600310Y-93437768D01*
X169653577Y-93392554D01*
X169722834Y-93383315D01*
X169769909Y-93400873D01*
X169825476Y-93435788D01*
X169825478Y-93435789D01*
X169995745Y-93495368D01*
X169995750Y-93495369D01*
X170174996Y-93515565D01*
X170175000Y-93515565D01*
X170175004Y-93515565D01*
X170354249Y-93495369D01*
X170354252Y-93495368D01*
X170354255Y-93495368D01*
X170524522Y-93435789D01*
X170677262Y-93339816D01*
X170804816Y-93212262D01*
X170900789Y-93059522D01*
X170960368Y-92889255D01*
X170980565Y-92710000D01*
X170960368Y-92530745D01*
X170900789Y-92360478D01*
X170804816Y-92207738D01*
X170677262Y-92080184D01*
X170669012Y-92075000D01*
X170524523Y-91984211D01*
X170354254Y-91924631D01*
X170354249Y-91924630D01*
X170175004Y-91904435D01*
X170174996Y-91904435D01*
X169995750Y-91924630D01*
X169995745Y-91924631D01*
X169825476Y-91984211D01*
X169672736Y-92080185D01*
X169669903Y-92082445D01*
X169667724Y-92083334D01*
X169666842Y-92083889D01*
X169666744Y-92083734D01*
X169605217Y-92108855D01*
X169592588Y-92109500D01*
X161404095Y-92109500D01*
X161337056Y-92089815D01*
X161291301Y-92037011D01*
X161281357Y-91967853D01*
X161299101Y-91919528D01*
X161380788Y-91789523D01*
X161380789Y-91789522D01*
X161440368Y-91619255D01*
X161440369Y-91619250D01*
X161452046Y-91515616D01*
X161479113Y-91451202D01*
X161536708Y-91411647D01*
X161575266Y-91405500D01*
X163247588Y-91405500D01*
X163314627Y-91425185D01*
X163324903Y-91432555D01*
X163327736Y-91434814D01*
X163327738Y-91434816D01*
X163480478Y-91530789D01*
X163650745Y-91590368D01*
X163650750Y-91590369D01*
X163829996Y-91610565D01*
X163830000Y-91610565D01*
X163830004Y-91610565D01*
X164009249Y-91590369D01*
X164009252Y-91590368D01*
X164009255Y-91590368D01*
X164179522Y-91530789D01*
X164332262Y-91434816D01*
X164459816Y-91307262D01*
X164555789Y-91154522D01*
X164615368Y-90984255D01*
X164615413Y-90983855D01*
X164635565Y-90805003D01*
X164635565Y-90804996D01*
X164615369Y-90625750D01*
X164615368Y-90625745D01*
X164564274Y-90479727D01*
X164560713Y-90409948D01*
X164595442Y-90349320D01*
X164640362Y-90321730D01*
X164644254Y-90320368D01*
X164644255Y-90320368D01*
X164814522Y-90260789D01*
X164967262Y-90164816D01*
X165094816Y-90037262D01*
X165190789Y-89884522D01*
X165250368Y-89714255D01*
X165250369Y-89714250D01*
X165262046Y-89610616D01*
X165289113Y-89546202D01*
X165346708Y-89506647D01*
X165385266Y-89500500D01*
X170867588Y-89500500D01*
X170934627Y-89520185D01*
X170944903Y-89527555D01*
X170947736Y-89529814D01*
X170947738Y-89529816D01*
X171100478Y-89625789D01*
X171270745Y-89685368D01*
X171270750Y-89685369D01*
X171449996Y-89705565D01*
X171450000Y-89705565D01*
X171450004Y-89705565D01*
X171629249Y-89685369D01*
X171629252Y-89685368D01*
X171629255Y-89685368D01*
X171799522Y-89625789D01*
X171952262Y-89529816D01*
X172079816Y-89402262D01*
X172175789Y-89249522D01*
X172223133Y-89114218D01*
X172263853Y-89057444D01*
X172299216Y-89038134D01*
X172413200Y-88998250D01*
X172434520Y-88990790D01*
X172434522Y-88990789D01*
X172587262Y-88894816D01*
X172714816Y-88767262D01*
X172810789Y-88614522D01*
X172870368Y-88444255D01*
X172874312Y-88409254D01*
X172890565Y-88265003D01*
X172890565Y-88264996D01*
X172870369Y-88085750D01*
X172870368Y-88085745D01*
X172810788Y-87915476D01*
X172714815Y-87762737D01*
X172587262Y-87635184D01*
X172434523Y-87539211D01*
X172264254Y-87479631D01*
X172264249Y-87479630D01*
X172085004Y-87459435D01*
X172084996Y-87459435D01*
X171905750Y-87479630D01*
X171905745Y-87479631D01*
X171735476Y-87539211D01*
X171634842Y-87602445D01*
X171623113Y-87609815D01*
X171622032Y-87610494D01*
X171556060Y-87629500D01*
X110437412Y-87629500D01*
X110370373Y-87609815D01*
X110360097Y-87602445D01*
X110357263Y-87600185D01*
X110357262Y-87600184D01*
X110300496Y-87564515D01*
X110204523Y-87504211D01*
X110034254Y-87444631D01*
X110034249Y-87444630D01*
X109855004Y-87424435D01*
X109854996Y-87424435D01*
X109675750Y-87444630D01*
X109675745Y-87444631D01*
X109505476Y-87504211D01*
X109352737Y-87600184D01*
X109225184Y-87727737D01*
X109129211Y-87880476D01*
X109069631Y-88050745D01*
X109069630Y-88050750D01*
X109049435Y-88229996D01*
X105910500Y-88229996D01*
X105910500Y-74929999D01*
X109134341Y-74929999D01*
X109134341Y-74930000D01*
X109154936Y-75165403D01*
X109154938Y-75165413D01*
X109216094Y-75393655D01*
X109216096Y-75393659D01*
X109216097Y-75393663D01*
X109295801Y-75564588D01*
X109315965Y-75607830D01*
X109315967Y-75607834D01*
X109424281Y-75762521D01*
X109451504Y-75801400D01*
X109451506Y-75801402D01*
X109618597Y-75968493D01*
X109618603Y-75968498D01*
X109804158Y-76098425D01*
X109847783Y-76153002D01*
X109854977Y-76222500D01*
X109823454Y-76284855D01*
X109804158Y-76301575D01*
X109618597Y-76431505D01*
X109451505Y-76598597D01*
X109315965Y-76792169D01*
X109315964Y-76792171D01*
X109216098Y-77006335D01*
X109216094Y-77006344D01*
X109154938Y-77234586D01*
X109154936Y-77234596D01*
X109134341Y-77469999D01*
X109134341Y-77470000D01*
X109154936Y-77705403D01*
X109154938Y-77705413D01*
X109216094Y-77933655D01*
X109216096Y-77933659D01*
X109216097Y-77933663D01*
X109295801Y-78104588D01*
X109315965Y-78147830D01*
X109315967Y-78147834D01*
X109424281Y-78302521D01*
X109451505Y-78341401D01*
X109618599Y-78508495D01*
X109715384Y-78576265D01*
X109812165Y-78644032D01*
X109812167Y-78644033D01*
X109812170Y-78644035D01*
X110026337Y-78743903D01*
X110254592Y-78805063D01*
X110431034Y-78820500D01*
X110489999Y-78825659D01*
X110490000Y-78825659D01*
X110490001Y-78825659D01*
X110548966Y-78820500D01*
X110725408Y-78805063D01*
X110953663Y-78743903D01*
X111167830Y-78644035D01*
X111361401Y-78508495D01*
X111528495Y-78341401D01*
X111658730Y-78155405D01*
X111713307Y-78111781D01*
X111782805Y-78104587D01*
X111845160Y-78136110D01*
X111861879Y-78155405D01*
X111991890Y-78341078D01*
X112158917Y-78508105D01*
X112352421Y-78643600D01*
X112566507Y-78743429D01*
X112566516Y-78743433D01*
X112780000Y-78800634D01*
X112780000Y-77903012D01*
X112837007Y-77935925D01*
X112964174Y-77970000D01*
X113095826Y-77970000D01*
X113222993Y-77935925D01*
X113280000Y-77903012D01*
X113280000Y-78800633D01*
X113493483Y-78743433D01*
X113493492Y-78743429D01*
X113707578Y-78643600D01*
X113901082Y-78508105D01*
X114068105Y-78341082D01*
X114198119Y-78155405D01*
X114252696Y-78111781D01*
X114322195Y-78104588D01*
X114384549Y-78136110D01*
X114401269Y-78155405D01*
X114531505Y-78341401D01*
X114698599Y-78508495D01*
X114795384Y-78576265D01*
X114892165Y-78644032D01*
X114892167Y-78644033D01*
X114892170Y-78644035D01*
X115106337Y-78743903D01*
X115334592Y-78805063D01*
X115511034Y-78820500D01*
X115569999Y-78825659D01*
X115570000Y-78825659D01*
X115570001Y-78825659D01*
X115628966Y-78820500D01*
X115805408Y-78805063D01*
X116033663Y-78743903D01*
X116247830Y-78644035D01*
X116441401Y-78508495D01*
X116608495Y-78341401D01*
X116738425Y-78155842D01*
X116793002Y-78112217D01*
X116862500Y-78105023D01*
X116924855Y-78136546D01*
X116941575Y-78155842D01*
X117071500Y-78341395D01*
X117071505Y-78341401D01*
X117238599Y-78508495D01*
X117335384Y-78576265D01*
X117432165Y-78644032D01*
X117432167Y-78644033D01*
X117432170Y-78644035D01*
X117646337Y-78743903D01*
X117874592Y-78805063D01*
X118051034Y-78820500D01*
X118109999Y-78825659D01*
X118110000Y-78825659D01*
X118110001Y-78825659D01*
X118168966Y-78820500D01*
X118345408Y-78805063D01*
X118573663Y-78743903D01*
X118787830Y-78644035D01*
X118981401Y-78508495D01*
X119148495Y-78341401D01*
X119278425Y-78155842D01*
X119333002Y-78112217D01*
X119402500Y-78105023D01*
X119464855Y-78136546D01*
X119481575Y-78155842D01*
X119611500Y-78341395D01*
X119611505Y-78341401D01*
X119778599Y-78508495D01*
X119875384Y-78576265D01*
X119972165Y-78644032D01*
X119972167Y-78644033D01*
X119972170Y-78644035D01*
X120186337Y-78743903D01*
X120414592Y-78805063D01*
X120591034Y-78820500D01*
X120649999Y-78825659D01*
X120650000Y-78825659D01*
X120650001Y-78825659D01*
X120708966Y-78820500D01*
X120885408Y-78805063D01*
X121113663Y-78743903D01*
X121327830Y-78644035D01*
X121521401Y-78508495D01*
X121643329Y-78386566D01*
X121704648Y-78353084D01*
X121774340Y-78358068D01*
X121830274Y-78399939D01*
X121847189Y-78430917D01*
X121896202Y-78562328D01*
X121896206Y-78562335D01*
X121982452Y-78677544D01*
X121982455Y-78677547D01*
X122097664Y-78763793D01*
X122097671Y-78763797D01*
X122232517Y-78814091D01*
X122232516Y-78814091D01*
X122239444Y-78814835D01*
X122292127Y-78820500D01*
X124087872Y-78820499D01*
X124147483Y-78814091D01*
X124282331Y-78763796D01*
X124397546Y-78677546D01*
X124483796Y-78562331D01*
X124534091Y-78427483D01*
X124540500Y-78367873D01*
X124540499Y-76572128D01*
X124534091Y-76512517D01*
X124532810Y-76509083D01*
X124483797Y-76377671D01*
X124483793Y-76377664D01*
X124397547Y-76262455D01*
X124397544Y-76262452D01*
X124282335Y-76176206D01*
X124282328Y-76176202D01*
X124150917Y-76127189D01*
X124094983Y-76085318D01*
X124070566Y-76019853D01*
X124085418Y-75951580D01*
X124106563Y-75923332D01*
X124228495Y-75801401D01*
X124364035Y-75607830D01*
X124463903Y-75393663D01*
X124525063Y-75165408D01*
X124545659Y-74930000D01*
X124545659Y-74929999D01*
X131994341Y-74929999D01*
X131994341Y-74930000D01*
X132014936Y-75165403D01*
X132014938Y-75165413D01*
X132076094Y-75393655D01*
X132076096Y-75393659D01*
X132076097Y-75393663D01*
X132155801Y-75564588D01*
X132175965Y-75607830D01*
X132175967Y-75607834D01*
X132284281Y-75762521D01*
X132311504Y-75801400D01*
X132311506Y-75801402D01*
X132478597Y-75968493D01*
X132478603Y-75968498D01*
X132664158Y-76098425D01*
X132707783Y-76153002D01*
X132714977Y-76222500D01*
X132683454Y-76284855D01*
X132664158Y-76301575D01*
X132478597Y-76431505D01*
X132311505Y-76598597D01*
X132175965Y-76792169D01*
X132175964Y-76792171D01*
X132076098Y-77006335D01*
X132076094Y-77006344D01*
X132014938Y-77234586D01*
X132014936Y-77234596D01*
X131994341Y-77469999D01*
X131994341Y-77470000D01*
X132014936Y-77705403D01*
X132014938Y-77705413D01*
X132076094Y-77933655D01*
X132076096Y-77933659D01*
X132076097Y-77933663D01*
X132155801Y-78104588D01*
X132175965Y-78147830D01*
X132175967Y-78147834D01*
X132284281Y-78302521D01*
X132311505Y-78341401D01*
X132478599Y-78508495D01*
X132575384Y-78576265D01*
X132672165Y-78644032D01*
X132672167Y-78644033D01*
X132672170Y-78644035D01*
X132886337Y-78743903D01*
X133114592Y-78805063D01*
X133291034Y-78820500D01*
X133349999Y-78825659D01*
X133350000Y-78825659D01*
X133350001Y-78825659D01*
X133408966Y-78820500D01*
X133585408Y-78805063D01*
X133813663Y-78743903D01*
X134027830Y-78644035D01*
X134221401Y-78508495D01*
X134388495Y-78341401D01*
X134518730Y-78155405D01*
X134573307Y-78111781D01*
X134642805Y-78104587D01*
X134705160Y-78136110D01*
X134721879Y-78155405D01*
X134851890Y-78341078D01*
X135018917Y-78508105D01*
X135212421Y-78643600D01*
X135426507Y-78743429D01*
X135426516Y-78743433D01*
X135640000Y-78800634D01*
X135640000Y-77903012D01*
X135697007Y-77935925D01*
X135824174Y-77970000D01*
X135955826Y-77970000D01*
X136082993Y-77935925D01*
X136140000Y-77903012D01*
X136140000Y-78800634D01*
X136353483Y-78743433D01*
X136353492Y-78743429D01*
X136567578Y-78643600D01*
X136761082Y-78508105D01*
X136928105Y-78341082D01*
X137058119Y-78155405D01*
X137112696Y-78111781D01*
X137182195Y-78104588D01*
X137244549Y-78136110D01*
X137261269Y-78155405D01*
X137391505Y-78341401D01*
X137558599Y-78508495D01*
X137655384Y-78576265D01*
X137752165Y-78644032D01*
X137752167Y-78644033D01*
X137752170Y-78644035D01*
X137966337Y-78743903D01*
X138194592Y-78805063D01*
X138371034Y-78820500D01*
X138429999Y-78825659D01*
X138430000Y-78825659D01*
X138430001Y-78825659D01*
X138488966Y-78820500D01*
X138665408Y-78805063D01*
X138893663Y-78743903D01*
X139107830Y-78644035D01*
X139301401Y-78508495D01*
X139468495Y-78341401D01*
X139598425Y-78155842D01*
X139653002Y-78112217D01*
X139722500Y-78105023D01*
X139784855Y-78136546D01*
X139801575Y-78155842D01*
X139931500Y-78341395D01*
X139931505Y-78341401D01*
X140098599Y-78508495D01*
X140195384Y-78576265D01*
X140292165Y-78644032D01*
X140292167Y-78644033D01*
X140292170Y-78644035D01*
X140506337Y-78743903D01*
X140734592Y-78805063D01*
X140911034Y-78820500D01*
X140969999Y-78825659D01*
X140970000Y-78825659D01*
X140970001Y-78825659D01*
X141028966Y-78820500D01*
X141205408Y-78805063D01*
X141433663Y-78743903D01*
X141647830Y-78644035D01*
X141841401Y-78508495D01*
X142008495Y-78341401D01*
X142138425Y-78155842D01*
X142193002Y-78112217D01*
X142262500Y-78105023D01*
X142324855Y-78136546D01*
X142341575Y-78155842D01*
X142471500Y-78341395D01*
X142471505Y-78341401D01*
X142638599Y-78508495D01*
X142735384Y-78576265D01*
X142832165Y-78644032D01*
X142832167Y-78644033D01*
X142832170Y-78644035D01*
X143046337Y-78743903D01*
X143274592Y-78805063D01*
X143451034Y-78820500D01*
X143509999Y-78825659D01*
X143510000Y-78825659D01*
X143510001Y-78825659D01*
X143568966Y-78820500D01*
X143745408Y-78805063D01*
X143973663Y-78743903D01*
X144187830Y-78644035D01*
X144381401Y-78508495D01*
X144503329Y-78386566D01*
X144564648Y-78353084D01*
X144634340Y-78358068D01*
X144690274Y-78399939D01*
X144707189Y-78430917D01*
X144756202Y-78562328D01*
X144756206Y-78562335D01*
X144842452Y-78677544D01*
X144842455Y-78677547D01*
X144957664Y-78763793D01*
X144957671Y-78763797D01*
X145092517Y-78814091D01*
X145092516Y-78814091D01*
X145099444Y-78814835D01*
X145152127Y-78820500D01*
X146947872Y-78820499D01*
X147007483Y-78814091D01*
X147142331Y-78763796D01*
X147257546Y-78677546D01*
X147343796Y-78562331D01*
X147394091Y-78427483D01*
X147400500Y-78367873D01*
X147400499Y-76572128D01*
X147394091Y-76512517D01*
X147392810Y-76509083D01*
X147343797Y-76377671D01*
X147343793Y-76377664D01*
X147257547Y-76262455D01*
X147257544Y-76262452D01*
X147142335Y-76176206D01*
X147142328Y-76176202D01*
X147010917Y-76127189D01*
X146954983Y-76085318D01*
X146930566Y-76019853D01*
X146945418Y-75951580D01*
X146966563Y-75923332D01*
X147088495Y-75801401D01*
X147224035Y-75607830D01*
X147323903Y-75393663D01*
X147385063Y-75165408D01*
X147405659Y-74930000D01*
X147405659Y-74929999D01*
X154854341Y-74929999D01*
X154854341Y-74930000D01*
X154874936Y-75165403D01*
X154874938Y-75165413D01*
X154936094Y-75393655D01*
X154936096Y-75393659D01*
X154936097Y-75393663D01*
X155015801Y-75564588D01*
X155035965Y-75607830D01*
X155035967Y-75607834D01*
X155144281Y-75762521D01*
X155171504Y-75801400D01*
X155171506Y-75801402D01*
X155338597Y-75968493D01*
X155338603Y-75968498D01*
X155524158Y-76098425D01*
X155567783Y-76153002D01*
X155574977Y-76222500D01*
X155543454Y-76284855D01*
X155524158Y-76301575D01*
X155338597Y-76431505D01*
X155171505Y-76598597D01*
X155035965Y-76792169D01*
X155035964Y-76792171D01*
X154936098Y-77006335D01*
X154936094Y-77006344D01*
X154874938Y-77234586D01*
X154874936Y-77234596D01*
X154854341Y-77469999D01*
X154854341Y-77470000D01*
X154874936Y-77705403D01*
X154874938Y-77705413D01*
X154936094Y-77933655D01*
X154936096Y-77933659D01*
X154936097Y-77933663D01*
X155015801Y-78104588D01*
X155035965Y-78147830D01*
X155035967Y-78147834D01*
X155144281Y-78302521D01*
X155171505Y-78341401D01*
X155338599Y-78508495D01*
X155435384Y-78576265D01*
X155532165Y-78644032D01*
X155532167Y-78644033D01*
X155532170Y-78644035D01*
X155746337Y-78743903D01*
X155974592Y-78805063D01*
X156151034Y-78820500D01*
X156209999Y-78825659D01*
X156210000Y-78825659D01*
X156210001Y-78825659D01*
X156268966Y-78820500D01*
X156445408Y-78805063D01*
X156673663Y-78743903D01*
X156887830Y-78644035D01*
X157081401Y-78508495D01*
X157248495Y-78341401D01*
X157378730Y-78155405D01*
X157433307Y-78111781D01*
X157502805Y-78104587D01*
X157565160Y-78136110D01*
X157581879Y-78155405D01*
X157711890Y-78341078D01*
X157878917Y-78508105D01*
X158072421Y-78643600D01*
X158286507Y-78743429D01*
X158286516Y-78743433D01*
X158500000Y-78800634D01*
X158500000Y-77903012D01*
X158557007Y-77935925D01*
X158684174Y-77970000D01*
X158815826Y-77970000D01*
X158942993Y-77935925D01*
X159000000Y-77903012D01*
X159000000Y-78800633D01*
X159213483Y-78743433D01*
X159213492Y-78743429D01*
X159427578Y-78643600D01*
X159621082Y-78508105D01*
X159788105Y-78341082D01*
X159918119Y-78155405D01*
X159972696Y-78111781D01*
X160042195Y-78104588D01*
X160104549Y-78136110D01*
X160121269Y-78155405D01*
X160251505Y-78341401D01*
X160418599Y-78508495D01*
X160515384Y-78576265D01*
X160612165Y-78644032D01*
X160612167Y-78644033D01*
X160612170Y-78644035D01*
X160826337Y-78743903D01*
X161054592Y-78805063D01*
X161231034Y-78820500D01*
X161289999Y-78825659D01*
X161290000Y-78825659D01*
X161290001Y-78825659D01*
X161348966Y-78820500D01*
X161525408Y-78805063D01*
X161753663Y-78743903D01*
X161967830Y-78644035D01*
X162161401Y-78508495D01*
X162328495Y-78341401D01*
X162458425Y-78155842D01*
X162513002Y-78112217D01*
X162582500Y-78105023D01*
X162644855Y-78136546D01*
X162661575Y-78155842D01*
X162791500Y-78341395D01*
X162791505Y-78341401D01*
X162958599Y-78508495D01*
X163055384Y-78576265D01*
X163152165Y-78644032D01*
X163152167Y-78644033D01*
X163152170Y-78644035D01*
X163366337Y-78743903D01*
X163594592Y-78805063D01*
X163771034Y-78820500D01*
X163829999Y-78825659D01*
X163830000Y-78825659D01*
X163830001Y-78825659D01*
X163888966Y-78820500D01*
X164065408Y-78805063D01*
X164293663Y-78743903D01*
X164507830Y-78644035D01*
X164701401Y-78508495D01*
X164868495Y-78341401D01*
X164998425Y-78155842D01*
X165053002Y-78112217D01*
X165122500Y-78105023D01*
X165184855Y-78136546D01*
X165201575Y-78155842D01*
X165331500Y-78341395D01*
X165331505Y-78341401D01*
X165498599Y-78508495D01*
X165595384Y-78576265D01*
X165692165Y-78644032D01*
X165692167Y-78644033D01*
X165692170Y-78644035D01*
X165906337Y-78743903D01*
X166134592Y-78805063D01*
X166311034Y-78820500D01*
X166369999Y-78825659D01*
X166370000Y-78825659D01*
X166370001Y-78825659D01*
X166428966Y-78820500D01*
X166605408Y-78805063D01*
X166833663Y-78743903D01*
X167047830Y-78644035D01*
X167241401Y-78508495D01*
X167363329Y-78386566D01*
X167424648Y-78353084D01*
X167494340Y-78358068D01*
X167550274Y-78399939D01*
X167567189Y-78430917D01*
X167616202Y-78562328D01*
X167616206Y-78562335D01*
X167702452Y-78677544D01*
X167702455Y-78677547D01*
X167817664Y-78763793D01*
X167817671Y-78763797D01*
X167952517Y-78814091D01*
X167952516Y-78814091D01*
X167959444Y-78814835D01*
X168012127Y-78820500D01*
X169807872Y-78820499D01*
X169867483Y-78814091D01*
X170002331Y-78763796D01*
X170117546Y-78677546D01*
X170203796Y-78562331D01*
X170254091Y-78427483D01*
X170260500Y-78367873D01*
X170260499Y-76572128D01*
X170254091Y-76512517D01*
X170252810Y-76509083D01*
X170203797Y-76377671D01*
X170203793Y-76377664D01*
X170117547Y-76262455D01*
X170117544Y-76262452D01*
X170002335Y-76176206D01*
X170002328Y-76176202D01*
X169870917Y-76127189D01*
X169814983Y-76085318D01*
X169790566Y-76019853D01*
X169805418Y-75951580D01*
X169826563Y-75923332D01*
X169948495Y-75801401D01*
X170084035Y-75607830D01*
X170183903Y-75393663D01*
X170245063Y-75165408D01*
X170265659Y-74930000D01*
X170245063Y-74694592D01*
X170183903Y-74466337D01*
X170084035Y-74252171D01*
X170078731Y-74244595D01*
X169948494Y-74058597D01*
X169781402Y-73891506D01*
X169781395Y-73891501D01*
X169587834Y-73755967D01*
X169587830Y-73755965D01*
X169587828Y-73755964D01*
X169373663Y-73656097D01*
X169373659Y-73656096D01*
X169373655Y-73656094D01*
X169145413Y-73594938D01*
X169145403Y-73594936D01*
X168910001Y-73574341D01*
X168909999Y-73574341D01*
X168674596Y-73594936D01*
X168674586Y-73594938D01*
X168446344Y-73656094D01*
X168446335Y-73656098D01*
X168232171Y-73755964D01*
X168232169Y-73755965D01*
X168038597Y-73891505D01*
X167871505Y-74058597D01*
X167741575Y-74244158D01*
X167686998Y-74287783D01*
X167617500Y-74294977D01*
X167555145Y-74263454D01*
X167538425Y-74244158D01*
X167408494Y-74058597D01*
X167241402Y-73891506D01*
X167241395Y-73891501D01*
X167047834Y-73755967D01*
X167047830Y-73755965D01*
X167047828Y-73755964D01*
X166833663Y-73656097D01*
X166833659Y-73656096D01*
X166833655Y-73656094D01*
X166605413Y-73594938D01*
X166605403Y-73594936D01*
X166370001Y-73574341D01*
X166369999Y-73574341D01*
X166134596Y-73594936D01*
X166134586Y-73594938D01*
X165906344Y-73656094D01*
X165906335Y-73656098D01*
X165692171Y-73755964D01*
X165692169Y-73755965D01*
X165498597Y-73891505D01*
X165331505Y-74058597D01*
X165201575Y-74244158D01*
X165146998Y-74287783D01*
X165077500Y-74294977D01*
X165015145Y-74263454D01*
X164998425Y-74244158D01*
X164868494Y-74058597D01*
X164701402Y-73891506D01*
X164701395Y-73891501D01*
X164507834Y-73755967D01*
X164507830Y-73755965D01*
X164507828Y-73755964D01*
X164293663Y-73656097D01*
X164293659Y-73656096D01*
X164293655Y-73656094D01*
X164065413Y-73594938D01*
X164065403Y-73594936D01*
X163830001Y-73574341D01*
X163829999Y-73574341D01*
X163594596Y-73594936D01*
X163594586Y-73594938D01*
X163366344Y-73656094D01*
X163366335Y-73656098D01*
X163152171Y-73755964D01*
X163152169Y-73755965D01*
X162958597Y-73891505D01*
X162791505Y-74058597D01*
X162661575Y-74244158D01*
X162606998Y-74287783D01*
X162537500Y-74294977D01*
X162475145Y-74263454D01*
X162458425Y-74244158D01*
X162328494Y-74058597D01*
X162161402Y-73891506D01*
X162161395Y-73891501D01*
X161967834Y-73755967D01*
X161967830Y-73755965D01*
X161967828Y-73755964D01*
X161753663Y-73656097D01*
X161753659Y-73656096D01*
X161753655Y-73656094D01*
X161525413Y-73594938D01*
X161525403Y-73594936D01*
X161290001Y-73574341D01*
X161289999Y-73574341D01*
X161054596Y-73594936D01*
X161054586Y-73594938D01*
X160826344Y-73656094D01*
X160826335Y-73656098D01*
X160612171Y-73755964D01*
X160612169Y-73755965D01*
X160418597Y-73891505D01*
X160251508Y-74058594D01*
X160121269Y-74244595D01*
X160066692Y-74288219D01*
X159997193Y-74295412D01*
X159934839Y-74263890D01*
X159918119Y-74244594D01*
X159788113Y-74058926D01*
X159788108Y-74058920D01*
X159621082Y-73891894D01*
X159427578Y-73756399D01*
X159213492Y-73656570D01*
X159213486Y-73656567D01*
X159000000Y-73599364D01*
X159000000Y-74496988D01*
X158942993Y-74464075D01*
X158815826Y-74430000D01*
X158684174Y-74430000D01*
X158557007Y-74464075D01*
X158500000Y-74496988D01*
X158500000Y-73599364D01*
X158499999Y-73599364D01*
X158286513Y-73656567D01*
X158286507Y-73656570D01*
X158072422Y-73756399D01*
X158072420Y-73756400D01*
X157878926Y-73891886D01*
X157878920Y-73891891D01*
X157711891Y-74058920D01*
X157711890Y-74058922D01*
X157581880Y-74244595D01*
X157527303Y-74288219D01*
X157457804Y-74295412D01*
X157395450Y-74263890D01*
X157378730Y-74244594D01*
X157248494Y-74058597D01*
X157081402Y-73891506D01*
X157081395Y-73891501D01*
X156887834Y-73755967D01*
X156887830Y-73755965D01*
X156887828Y-73755964D01*
X156673663Y-73656097D01*
X156673659Y-73656096D01*
X156673655Y-73656094D01*
X156445413Y-73594938D01*
X156445403Y-73594936D01*
X156210001Y-73574341D01*
X156209999Y-73574341D01*
X155974596Y-73594936D01*
X155974586Y-73594938D01*
X155746344Y-73656094D01*
X155746335Y-73656098D01*
X155532171Y-73755964D01*
X155532169Y-73755965D01*
X155338597Y-73891505D01*
X155171505Y-74058597D01*
X155035965Y-74252169D01*
X155035964Y-74252171D01*
X154936098Y-74466335D01*
X154936094Y-74466344D01*
X154874938Y-74694586D01*
X154874936Y-74694596D01*
X154854341Y-74929999D01*
X147405659Y-74929999D01*
X147385063Y-74694592D01*
X147323903Y-74466337D01*
X147224035Y-74252171D01*
X147218731Y-74244595D01*
X147088494Y-74058597D01*
X146921402Y-73891506D01*
X146921395Y-73891501D01*
X146727834Y-73755967D01*
X146727830Y-73755965D01*
X146727828Y-73755964D01*
X146513663Y-73656097D01*
X146513659Y-73656096D01*
X146513655Y-73656094D01*
X146285413Y-73594938D01*
X146285403Y-73594936D01*
X146050001Y-73574341D01*
X146049999Y-73574341D01*
X145814596Y-73594936D01*
X145814586Y-73594938D01*
X145586344Y-73656094D01*
X145586335Y-73656098D01*
X145372171Y-73755964D01*
X145372169Y-73755965D01*
X145178597Y-73891505D01*
X145011505Y-74058597D01*
X144881575Y-74244158D01*
X144826998Y-74287783D01*
X144757500Y-74294977D01*
X144695145Y-74263454D01*
X144678425Y-74244158D01*
X144548494Y-74058597D01*
X144381402Y-73891506D01*
X144381395Y-73891501D01*
X144187834Y-73755967D01*
X144187830Y-73755965D01*
X144187828Y-73755964D01*
X143973663Y-73656097D01*
X143973659Y-73656096D01*
X143973655Y-73656094D01*
X143745413Y-73594938D01*
X143745403Y-73594936D01*
X143510001Y-73574341D01*
X143509999Y-73574341D01*
X143274596Y-73594936D01*
X143274586Y-73594938D01*
X143046344Y-73656094D01*
X143046335Y-73656098D01*
X142832171Y-73755964D01*
X142832169Y-73755965D01*
X142638597Y-73891505D01*
X142471505Y-74058597D01*
X142341575Y-74244158D01*
X142286998Y-74287783D01*
X142217500Y-74294977D01*
X142155145Y-74263454D01*
X142138425Y-74244158D01*
X142008494Y-74058597D01*
X141841402Y-73891506D01*
X141841395Y-73891501D01*
X141647834Y-73755967D01*
X141647830Y-73755965D01*
X141647828Y-73755964D01*
X141433663Y-73656097D01*
X141433659Y-73656096D01*
X141433655Y-73656094D01*
X141205413Y-73594938D01*
X141205403Y-73594936D01*
X140970001Y-73574341D01*
X140969999Y-73574341D01*
X140734596Y-73594936D01*
X140734586Y-73594938D01*
X140506344Y-73656094D01*
X140506335Y-73656098D01*
X140292171Y-73755964D01*
X140292169Y-73755965D01*
X140098597Y-73891505D01*
X139931505Y-74058597D01*
X139801575Y-74244158D01*
X139746998Y-74287783D01*
X139677500Y-74294977D01*
X139615145Y-74263454D01*
X139598425Y-74244158D01*
X139468494Y-74058597D01*
X139301402Y-73891506D01*
X139301395Y-73891501D01*
X139107834Y-73755967D01*
X139107830Y-73755965D01*
X139107828Y-73755964D01*
X138893663Y-73656097D01*
X138893659Y-73656096D01*
X138893655Y-73656094D01*
X138665413Y-73594938D01*
X138665403Y-73594936D01*
X138430001Y-73574341D01*
X138429999Y-73574341D01*
X138194596Y-73594936D01*
X138194586Y-73594938D01*
X137966344Y-73656094D01*
X137966335Y-73656098D01*
X137752171Y-73755964D01*
X137752169Y-73755965D01*
X137558597Y-73891505D01*
X137391508Y-74058594D01*
X137261269Y-74244595D01*
X137206692Y-74288219D01*
X137137193Y-74295412D01*
X137074839Y-74263890D01*
X137058119Y-74244594D01*
X136928113Y-74058926D01*
X136928108Y-74058920D01*
X136761082Y-73891894D01*
X136567578Y-73756399D01*
X136353492Y-73656570D01*
X136353486Y-73656567D01*
X136140000Y-73599364D01*
X136140000Y-74496988D01*
X136082993Y-74464075D01*
X135955826Y-74430000D01*
X135824174Y-74430000D01*
X135697007Y-74464075D01*
X135640000Y-74496988D01*
X135640000Y-73599364D01*
X135639999Y-73599364D01*
X135426513Y-73656567D01*
X135426507Y-73656570D01*
X135212422Y-73756399D01*
X135212420Y-73756400D01*
X135018926Y-73891886D01*
X135018920Y-73891891D01*
X134851891Y-74058920D01*
X134851890Y-74058922D01*
X134721880Y-74244595D01*
X134667303Y-74288219D01*
X134597804Y-74295412D01*
X134535450Y-74263890D01*
X134518730Y-74244594D01*
X134388494Y-74058597D01*
X134221402Y-73891506D01*
X134221395Y-73891501D01*
X134027834Y-73755967D01*
X134027830Y-73755965D01*
X134027828Y-73755964D01*
X133813663Y-73656097D01*
X133813659Y-73656096D01*
X133813655Y-73656094D01*
X133585413Y-73594938D01*
X133585403Y-73594936D01*
X133350001Y-73574341D01*
X133349999Y-73574341D01*
X133114596Y-73594936D01*
X133114586Y-73594938D01*
X132886344Y-73656094D01*
X132886335Y-73656098D01*
X132672171Y-73755964D01*
X132672169Y-73755965D01*
X132478597Y-73891505D01*
X132311505Y-74058597D01*
X132175965Y-74252169D01*
X132175964Y-74252171D01*
X132076098Y-74466335D01*
X132076094Y-74466344D01*
X132014938Y-74694586D01*
X132014936Y-74694596D01*
X131994341Y-74929999D01*
X124545659Y-74929999D01*
X124525063Y-74694592D01*
X124463903Y-74466337D01*
X124364035Y-74252171D01*
X124358731Y-74244595D01*
X124228494Y-74058597D01*
X124061402Y-73891506D01*
X124061395Y-73891501D01*
X123867834Y-73755967D01*
X123867830Y-73755965D01*
X123867828Y-73755964D01*
X123653663Y-73656097D01*
X123653659Y-73656096D01*
X123653655Y-73656094D01*
X123425413Y-73594938D01*
X123425403Y-73594936D01*
X123190001Y-73574341D01*
X123189999Y-73574341D01*
X122954596Y-73594936D01*
X122954586Y-73594938D01*
X122726344Y-73656094D01*
X122726335Y-73656098D01*
X122512171Y-73755964D01*
X122512169Y-73755965D01*
X122318597Y-73891505D01*
X122151505Y-74058597D01*
X122021575Y-74244158D01*
X121966998Y-74287783D01*
X121897500Y-74294977D01*
X121835145Y-74263454D01*
X121818425Y-74244158D01*
X121688494Y-74058597D01*
X121521402Y-73891506D01*
X121521395Y-73891501D01*
X121327834Y-73755967D01*
X121327830Y-73755965D01*
X121327828Y-73755964D01*
X121113663Y-73656097D01*
X121113659Y-73656096D01*
X121113655Y-73656094D01*
X120885413Y-73594938D01*
X120885403Y-73594936D01*
X120650001Y-73574341D01*
X120649999Y-73574341D01*
X120414596Y-73594936D01*
X120414586Y-73594938D01*
X120186344Y-73656094D01*
X120186335Y-73656098D01*
X119972171Y-73755964D01*
X119972169Y-73755965D01*
X119778597Y-73891505D01*
X119611505Y-74058597D01*
X119481575Y-74244158D01*
X119426998Y-74287783D01*
X119357500Y-74294977D01*
X119295145Y-74263454D01*
X119278425Y-74244158D01*
X119148494Y-74058597D01*
X118981402Y-73891506D01*
X118981395Y-73891501D01*
X118787834Y-73755967D01*
X118787830Y-73755965D01*
X118787828Y-73755964D01*
X118573663Y-73656097D01*
X118573659Y-73656096D01*
X118573655Y-73656094D01*
X118345413Y-73594938D01*
X118345403Y-73594936D01*
X118110001Y-73574341D01*
X118109999Y-73574341D01*
X117874596Y-73594936D01*
X117874586Y-73594938D01*
X117646344Y-73656094D01*
X117646335Y-73656098D01*
X117432171Y-73755964D01*
X117432169Y-73755965D01*
X117238597Y-73891505D01*
X117071505Y-74058597D01*
X116941575Y-74244158D01*
X116886998Y-74287783D01*
X116817500Y-74294977D01*
X116755145Y-74263454D01*
X116738425Y-74244158D01*
X116608494Y-74058597D01*
X116441402Y-73891506D01*
X116441395Y-73891501D01*
X116247834Y-73755967D01*
X116247830Y-73755965D01*
X116247828Y-73755964D01*
X116033663Y-73656097D01*
X116033659Y-73656096D01*
X116033655Y-73656094D01*
X115805413Y-73594938D01*
X115805403Y-73594936D01*
X115570001Y-73574341D01*
X115569999Y-73574341D01*
X115334596Y-73594936D01*
X115334586Y-73594938D01*
X115106344Y-73656094D01*
X115106335Y-73656098D01*
X114892171Y-73755964D01*
X114892169Y-73755965D01*
X114698597Y-73891505D01*
X114531508Y-74058594D01*
X114401269Y-74244595D01*
X114346692Y-74288219D01*
X114277193Y-74295412D01*
X114214839Y-74263890D01*
X114198119Y-74244594D01*
X114068113Y-74058926D01*
X114068108Y-74058920D01*
X113901082Y-73891894D01*
X113707578Y-73756399D01*
X113493492Y-73656570D01*
X113493486Y-73656567D01*
X113280000Y-73599364D01*
X113280000Y-74496988D01*
X113222993Y-74464075D01*
X113095826Y-74430000D01*
X112964174Y-74430000D01*
X112837007Y-74464075D01*
X112780000Y-74496988D01*
X112780000Y-73599364D01*
X112779999Y-73599364D01*
X112566513Y-73656567D01*
X112566507Y-73656570D01*
X112352422Y-73756399D01*
X112352420Y-73756400D01*
X112158926Y-73891886D01*
X112158920Y-73891891D01*
X111991891Y-74058920D01*
X111991890Y-74058922D01*
X111861880Y-74244595D01*
X111807303Y-74288219D01*
X111737804Y-74295412D01*
X111675450Y-74263890D01*
X111658730Y-74244594D01*
X111528494Y-74058597D01*
X111361402Y-73891506D01*
X111361395Y-73891501D01*
X111167834Y-73755967D01*
X111167830Y-73755965D01*
X111167828Y-73755964D01*
X110953663Y-73656097D01*
X110953659Y-73656096D01*
X110953655Y-73656094D01*
X110725413Y-73594938D01*
X110725403Y-73594936D01*
X110490001Y-73574341D01*
X110489999Y-73574341D01*
X110254596Y-73594936D01*
X110254586Y-73594938D01*
X110026344Y-73656094D01*
X110026335Y-73656098D01*
X109812171Y-73755964D01*
X109812169Y-73755965D01*
X109618597Y-73891505D01*
X109451505Y-74058597D01*
X109315965Y-74252169D01*
X109315964Y-74252171D01*
X109216098Y-74466335D01*
X109216094Y-74466344D01*
X109154938Y-74694586D01*
X109154936Y-74694596D01*
X109134341Y-74929999D01*
X105910500Y-74929999D01*
X105910500Y-73664066D01*
X105910765Y-73655957D01*
X105916114Y-73574341D01*
X105927417Y-73401883D01*
X105929531Y-73385829D01*
X105978409Y-73140107D01*
X105982606Y-73124445D01*
X106006197Y-73054945D01*
X106063138Y-72887205D01*
X106069336Y-72872239D01*
X106180149Y-72647533D01*
X106188252Y-72633498D01*
X106327448Y-72425176D01*
X106337305Y-72412331D01*
X106502502Y-72223960D01*
X106513960Y-72212502D01*
X106702331Y-72047305D01*
X106715176Y-72037448D01*
X106923498Y-71898252D01*
X106937533Y-71890149D01*
X107162239Y-71779336D01*
X107177205Y-71773138D01*
X107344945Y-71716197D01*
X107414445Y-71692606D01*
X107430107Y-71688409D01*
X107675829Y-71639531D01*
X107691883Y-71637417D01*
X107924848Y-71622148D01*
X107945958Y-71620765D01*
X107954067Y-71620500D01*
X108015892Y-71620500D01*
X171384108Y-71620500D01*
X171445933Y-71620500D01*
X171454042Y-71620765D01*
G37*
%TD.AperFunction*%
%TD*%
M02*
