M48
; DRILL file {KiCad 8.0.2} date 2024-06-16T13:33:32+0200
; FORMAT={-:-/ absolute / inch / decimal}
; #@! TF.CreationDate,2024-06-16T13:33:32+02:00
; #@! TF.GenerationSoftware,Kicad,Pcbnew,8.0.2
; #@! TF.FileFunction,Plated,1,2,PTH
FMAT,2
INCH
; #@! TA.AperFunction,Plated,PTH,ViaDrill
T1C0.0118
; #@! TA.AperFunction,Plated,PTH,ViaDrill
T2C0.0157
; #@! TA.AperFunction,Plated,PTH,ComponentDrill
T3C0.0394
%
G90
G05
T1
X4.2Y-3.95
X4.225Y-2.95
X4.3Y-4.775
X4.325Y-3.4736
X4.35Y-3.5
X4.35Y-3.75
X4.375Y-3.525
X4.4246Y-3.65
X4.425Y-4.75
X4.425Y-4.8
X4.5Y-3.8
X4.525Y-3.625
X4.65Y-3.55
X4.675Y-3.575
X4.675Y-3.75
X4.7Y-3.6
X4.7498Y-3.65
X4.75Y-4.75
X4.75Y-4.8
X4.825Y-3.775
X4.85Y-3.6
X4.875Y-3.725
X4.975Y-3.6
X4.975Y-3.75
X5.0Y-3.625
X5.025Y-3.65
X5.0748Y-3.675
X5.075Y-4.75
X5.075Y-4.8
X5.125Y-2.95
X5.15Y-3.7
X5.175Y-3.55
X5.3Y-3.625
X5.325Y-3.55
X5.35Y-3.675
X5.3998Y-3.625
X5.4Y-4.75
X5.4Y-4.8
X5.475Y-3.675
X5.5Y-3.5
X5.625Y-3.625
X5.65Y-3.725
X5.725Y-4.75
X5.725Y-4.8
X5.8Y-3.825
X5.825Y-3.6
X5.95Y-3.75
X5.975Y-3.5
X6.0Y-3.675
X6.025Y-2.95
X6.0498Y-3.625
X6.05Y-4.75
X6.05Y-4.8
X6.125Y-3.6
X6.15Y-3.575
X6.275Y-3.575
X6.3Y-3.7
X6.325Y-3.6
X6.3748Y-3.55
X6.375Y-4.75
X6.375Y-4.8
X6.45Y-3.575
X6.475Y-3.525
X6.6Y-3.675
X6.625Y-3.725
X6.625Y-3.775
X6.65Y-3.7
X6.6998Y-3.65
X6.75Y-3.5
X6.75Y-4.675
X6.775Y-3.475
T2
X4.275Y-4.0508
X4.35Y-3.95
X4.35Y-4.675
X4.425Y-3.275
X4.425Y-4.35
X4.4724Y-3.95
X4.6002Y-4.05
X4.675Y-3.95
X4.675Y-4.675
X4.75Y-3.275
X4.75Y-4.35
X4.7974Y-3.95
X4.925Y-4.05
X5.0Y-3.95
X5.0Y-4.675
X5.075Y-3.275
X5.075Y-4.35
X5.1224Y-3.95
X5.2502Y-4.0498
X5.325Y-3.95
X5.325Y-4.675
X5.4Y-3.275
X5.4Y-4.35
X5.4474Y-3.95
X5.5752Y-4.05
X5.65Y-3.95
X5.65Y-4.675
X5.725Y-3.275
X5.725Y-4.35
X5.7724Y-3.95
X5.9002Y-4.0502
X5.975Y-3.95
X5.975Y-4.675
X6.05Y-3.275
X6.05Y-4.35
X6.0974Y-3.95
X6.2252Y-4.0498
X6.3Y-3.95
X6.3Y-4.675
X6.375Y-3.275
X6.375Y-4.35
X6.4224Y-3.95
X6.5502Y-4.05
X6.625Y-3.95
X6.625Y-4.675
X6.7Y-3.275
X6.7Y-4.35
T3
X4.35Y-2.95
X4.35Y-3.05
X4.45Y-2.95
X4.45Y-3.05
X4.55Y-2.95
X4.55Y-3.05
X4.65Y-2.95
X4.65Y-3.05
X4.75Y-2.95
X4.75Y-3.05
X4.85Y-2.95
X4.85Y-3.05
X5.25Y-2.95
X5.25Y-3.05
X5.35Y-2.95
X5.35Y-3.05
X5.45Y-2.95
X5.45Y-3.05
X5.55Y-2.95
X5.55Y-3.05
X5.65Y-2.95
X5.65Y-3.05
X5.75Y-2.95
X5.75Y-3.05
X6.15Y-2.95
X6.15Y-3.05
X6.25Y-2.95
X6.25Y-3.05
X6.35Y-2.95
X6.35Y-3.05
X6.45Y-2.95
X6.45Y-3.05
X6.55Y-2.95
X6.55Y-3.05
X6.65Y-2.95
X6.65Y-3.05
M30
