%TF.GenerationSoftware,KiCad,Pcbnew,8.0.2*%
%TF.CreationDate,2024-06-16T09:55:42+02:00*%
%TF.ProjectId,pmod-factory,706d6f64-2d66-4616-9374-6f72792e6b69,rev?*%
%TF.SameCoordinates,Original*%
%TF.FileFunction,Soldermask,Top*%
%TF.FilePolarity,Negative*%
%FSLAX46Y46*%
G04 Gerber Fmt 4.6, Leading zero omitted, Abs format (unit mm)*
G04 Created by KiCad (PCBNEW 8.0.2) date 2024-06-16 09:55:42*
%MOMM*%
%LPD*%
G01*
G04 APERTURE LIST*
G04 Aperture macros list*
%AMRoundRect*
0 Rectangle with rounded corners*
0 $1 Rounding radius*
0 $2 $3 $4 $5 $6 $7 $8 $9 X,Y pos of 4 corners*
0 Add a 4 corners polygon primitive as box body*
4,1,4,$2,$3,$4,$5,$6,$7,$8,$9,$2,$3,0*
0 Add four circle primitives for the rounded corners*
1,1,$1+$1,$2,$3*
1,1,$1+$1,$4,$5*
1,1,$1+$1,$6,$7*
1,1,$1+$1,$8,$9*
0 Add four rect primitives between the rounded corners*
20,1,$1+$1,$2,$3,$4,$5,0*
20,1,$1+$1,$4,$5,$6,$7,0*
20,1,$1+$1,$6,$7,$8,$9,0*
20,1,$1+$1,$8,$9,$2,$3,0*%
G04 Aperture macros list end*
%ADD10R,1.000000X1.700000*%
%ADD11RoundRect,0.225000X-0.250000X0.225000X-0.250000X-0.225000X0.250000X-0.225000X0.250000X0.225000X0*%
%ADD12RoundRect,0.200000X-0.275000X0.200000X-0.275000X-0.200000X0.275000X-0.200000X0.275000X0.200000X0*%
%ADD13RoundRect,0.200000X0.200000X0.275000X-0.200000X0.275000X-0.200000X-0.275000X0.200000X-0.275000X0*%
%ADD14RoundRect,0.225000X0.225000X0.250000X-0.225000X0.250000X-0.225000X-0.250000X0.225000X-0.250000X0*%
%ADD15RoundRect,0.243750X0.243750X0.456250X-0.243750X0.456250X-0.243750X-0.456250X0.243750X-0.456250X0*%
%ADD16R,1.700000X1.700000*%
%ADD17O,1.700000X1.700000*%
%ADD18C,1.700000*%
G04 APERTURE END LIST*
D10*
%TO.C,SW13*%
X128900000Y-88315000D03*
X128900000Y-94615000D03*
X125100000Y-88315000D03*
X125100000Y-94615000D03*
%TD*%
%TO.C,SW24*%
X170175000Y-100990000D03*
X170175000Y-107290000D03*
X166375000Y-100990000D03*
X166375000Y-107290000D03*
%TD*%
D11*
%TO.C,C13*%
X127000000Y-97015000D03*
X127000000Y-98565000D03*
%TD*%
D10*
%TO.C,SW4*%
X137150000Y-119405000D03*
X137150000Y-125705000D03*
X133350000Y-119405000D03*
X133350000Y-125705000D03*
%TD*%
D12*
%TO.C,R1*%
X112395000Y-115380000D03*
X112395000Y-117030000D03*
%TD*%
D13*
%TO.C,R19*%
X127825000Y-112395000D03*
X126175000Y-112395000D03*
%TD*%
D12*
%TO.C,R26*%
X112395000Y-96965000D03*
X112395000Y-98615000D03*
%TD*%
D10*
%TO.C,SW23*%
X170175000Y-88315000D03*
X170175000Y-94615000D03*
X166375000Y-88315000D03*
X166375000Y-94615000D03*
%TD*%
D11*
%TO.C,C12*%
X118740000Y-96990000D03*
X118740000Y-98540000D03*
%TD*%
D10*
%TO.C,SW6*%
X153660000Y-119405000D03*
X153660000Y-125705000D03*
X149860000Y-119405000D03*
X149860000Y-125705000D03*
%TD*%
D12*
%TO.C,R2*%
X108585000Y-115380000D03*
X108585000Y-117030000D03*
%TD*%
D10*
%TO.C,SW21*%
X161920000Y-88315000D03*
X161920000Y-94615000D03*
X158120000Y-88315000D03*
X158120000Y-94615000D03*
%TD*%
D14*
%TO.C,C10*%
X158255000Y-80010000D03*
X156705000Y-80010000D03*
%TD*%
D15*
%TO.C,D14*%
X152702500Y-83185000D03*
X150827500Y-83185000D03*
%TD*%
%TO.C,D5*%
X144452500Y-110490000D03*
X142577500Y-110490000D03*
%TD*%
D11*
%TO.C,C14*%
X135255000Y-97015000D03*
X135255000Y-98565000D03*
%TD*%
D12*
%TO.C,R11*%
X153670000Y-115380000D03*
X153670000Y-117030000D03*
%TD*%
D16*
%TO.C,J2*%
X146050000Y-77470000D03*
D17*
X143510000Y-77470000D03*
X140970000Y-77470000D03*
X138430000Y-77470000D03*
X135890000Y-77470000D03*
D18*
X133350000Y-77470000D03*
D17*
X146050000Y-74930000D03*
X143510000Y-74930000D03*
X140970000Y-74930000D03*
X138430000Y-74930000D03*
X135890000Y-74930000D03*
X133350000Y-74930000D03*
%TD*%
D15*
%TO.C,D2*%
X119687500Y-110490000D03*
X117812500Y-110490000D03*
%TD*%
D12*
%TO.C,R48*%
X166370000Y-96965000D03*
X166370000Y-98615000D03*
%TD*%
%TO.C,R27*%
X108585000Y-96965000D03*
X108585000Y-98615000D03*
%TD*%
D10*
%TO.C,SW15*%
X137155000Y-88315000D03*
X137155000Y-94615000D03*
X133355000Y-88315000D03*
X133355000Y-94615000D03*
%TD*%
%TO.C,SW18*%
X145410000Y-100990000D03*
X145410000Y-107290000D03*
X141610000Y-100990000D03*
X141610000Y-107290000D03*
%TD*%
D15*
%TO.C,D11*%
X127937500Y-83185000D03*
X126062500Y-83185000D03*
%TD*%
D13*
%TO.C,R23*%
X160845000Y-112395000D03*
X159195000Y-112395000D03*
%TD*%
D12*
%TO.C,R29*%
X120645000Y-96940000D03*
X120645000Y-98590000D03*
%TD*%
%TO.C,R38*%
X145415000Y-96965000D03*
X145415000Y-98615000D03*
%TD*%
%TO.C,R12*%
X149860000Y-115380000D03*
X149860000Y-117030000D03*
%TD*%
D11*
%TO.C,C8*%
X168280000Y-115430000D03*
X168280000Y-116980000D03*
%TD*%
D10*
%TO.C,SW12*%
X120645000Y-100990000D03*
X120645000Y-107290000D03*
X116845000Y-100990000D03*
X116845000Y-107290000D03*
%TD*%
D13*
%TO.C,R43*%
X160845000Y-85090000D03*
X159195000Y-85090000D03*
%TD*%
D15*
%TO.C,D6*%
X152707500Y-110490000D03*
X150832500Y-110490000D03*
%TD*%
D12*
%TO.C,R5*%
X128905000Y-115380000D03*
X128905000Y-117030000D03*
%TD*%
D10*
%TO.C,SW19*%
X153665000Y-88315000D03*
X153665000Y-94615000D03*
X149865000Y-88315000D03*
X149865000Y-94615000D03*
%TD*%
D16*
%TO.C,J3*%
X168910000Y-77470000D03*
D17*
X166370000Y-77470000D03*
X163830000Y-77470000D03*
X161290000Y-77470000D03*
X158750000Y-77470000D03*
D18*
X156210000Y-77470000D03*
D17*
X168910000Y-74930000D03*
X166370000Y-74930000D03*
X163830000Y-74930000D03*
X161290000Y-74930000D03*
X158750000Y-74930000D03*
X156210000Y-74930000D03*
%TD*%
D14*
%TO.C,C9*%
X112535000Y-80010000D03*
X110985000Y-80010000D03*
%TD*%
D10*
%TO.C,SW10*%
X112390000Y-100990000D03*
X112390000Y-107290000D03*
X108590000Y-100990000D03*
X108590000Y-107290000D03*
%TD*%
D12*
%TO.C,R39*%
X141605000Y-96965000D03*
X141605000Y-98615000D03*
%TD*%
D13*
%TO.C,R20*%
X136080000Y-112395000D03*
X134430000Y-112395000D03*
%TD*%
D12*
%TO.C,R14*%
X158120000Y-115380000D03*
X158120000Y-117030000D03*
%TD*%
D10*
%TO.C,SW3*%
X128895000Y-119405000D03*
X128895000Y-125705000D03*
X125095000Y-119405000D03*
X125095000Y-125705000D03*
%TD*%
D14*
%TO.C,C19*%
X135395000Y-80010000D03*
X133845000Y-80010000D03*
%TD*%
D12*
%TO.C,R13*%
X161930000Y-115380000D03*
X161930000Y-117030000D03*
%TD*%
%TO.C,R9*%
X145415000Y-115380000D03*
X145415000Y-117030000D03*
%TD*%
%TO.C,R8*%
X133350000Y-115380000D03*
X133350000Y-117030000D03*
%TD*%
D15*
%TO.C,D8*%
X169212500Y-110490000D03*
X167337500Y-110490000D03*
%TD*%
%TO.C,D12*%
X136192500Y-83185000D03*
X134317500Y-83185000D03*
%TD*%
D10*
%TO.C,SW7*%
X161920000Y-119405000D03*
X161920000Y-125705000D03*
X158120000Y-119405000D03*
X158120000Y-125705000D03*
%TD*%
D11*
%TO.C,C11*%
X110490000Y-97015000D03*
X110490000Y-98565000D03*
%TD*%
D15*
%TO.C,D7*%
X160957500Y-110490000D03*
X159082500Y-110490000D03*
%TD*%
D13*
%TO.C,R28*%
X119570000Y-85090000D03*
X117920000Y-85090000D03*
%TD*%
%TO.C,R18*%
X119570000Y-112395000D03*
X117920000Y-112395000D03*
%TD*%
D10*
%TO.C,SW17*%
X145410000Y-88315000D03*
X145410000Y-94615000D03*
X141610000Y-88315000D03*
X141610000Y-94615000D03*
%TD*%
D11*
%TO.C,C16*%
X151765000Y-97015000D03*
X151765000Y-98565000D03*
%TD*%
%TO.C,C6*%
X151765000Y-115430000D03*
X151765000Y-116980000D03*
%TD*%
D13*
%TO.C,R21*%
X144335000Y-112395000D03*
X142685000Y-112395000D03*
%TD*%
D12*
%TO.C,R30*%
X116840000Y-96965000D03*
X116840000Y-98615000D03*
%TD*%
D11*
%TO.C,C17*%
X160020000Y-97015000D03*
X160020000Y-98565000D03*
%TD*%
D12*
%TO.C,R32*%
X128905000Y-96965000D03*
X128905000Y-98615000D03*
%TD*%
D11*
%TO.C,C1*%
X110490000Y-115430000D03*
X110490000Y-116980000D03*
%TD*%
D12*
%TO.C,R42*%
X149860000Y-96965000D03*
X149860000Y-98615000D03*
%TD*%
%TO.C,R33*%
X125095000Y-96965000D03*
X125095000Y-98615000D03*
%TD*%
D13*
%TO.C,R40*%
X152590000Y-85090000D03*
X150940000Y-85090000D03*
%TD*%
D11*
%TO.C,C7*%
X160025000Y-115430000D03*
X160025000Y-116980000D03*
%TD*%
D12*
%TO.C,R7*%
X137160000Y-115380000D03*
X137160000Y-117030000D03*
%TD*%
D13*
%TO.C,R37*%
X144335000Y-85090000D03*
X142685000Y-85090000D03*
%TD*%
D12*
%TO.C,R45*%
X158115000Y-96965000D03*
X158115000Y-98615000D03*
%TD*%
D15*
%TO.C,D16*%
X169212500Y-83185000D03*
X167337500Y-83185000D03*
%TD*%
D12*
%TO.C,R3*%
X120650000Y-115380000D03*
X120650000Y-117030000D03*
%TD*%
D15*
%TO.C,D3*%
X127942500Y-110490000D03*
X126067500Y-110490000D03*
%TD*%
D11*
%TO.C,C5*%
X143510000Y-115430000D03*
X143510000Y-116980000D03*
%TD*%
D12*
%TO.C,R6*%
X125095000Y-115380000D03*
X125095000Y-117030000D03*
%TD*%
%TO.C,R35*%
X137160000Y-96965000D03*
X137160000Y-98615000D03*
%TD*%
%TO.C,R10*%
X141605000Y-115380000D03*
X141605000Y-117030000D03*
%TD*%
D13*
%TO.C,R24*%
X169100000Y-112395000D03*
X167450000Y-112395000D03*
%TD*%
%TO.C,R22*%
X152590000Y-112395000D03*
X150940000Y-112395000D03*
%TD*%
D11*
%TO.C,C2*%
X118745000Y-115430000D03*
X118745000Y-116980000D03*
%TD*%
D10*
%TO.C,SW1*%
X112385000Y-119405000D03*
X112385000Y-125705000D03*
X108585000Y-119405000D03*
X108585000Y-125705000D03*
%TD*%
D15*
%TO.C,D9*%
X111427500Y-83185000D03*
X109552500Y-83185000D03*
%TD*%
D16*
%TO.C,J1*%
X123190000Y-77470000D03*
D17*
X120650000Y-77470000D03*
X118110000Y-77470000D03*
X115570000Y-77470000D03*
X113030000Y-77470000D03*
D18*
X110490000Y-77470000D03*
D17*
X123190000Y-74930000D03*
X120650000Y-74930000D03*
X118110000Y-74930000D03*
X115570000Y-74930000D03*
X113030000Y-74930000D03*
X110490000Y-74930000D03*
%TD*%
D15*
%TO.C,D10*%
X119682500Y-83185000D03*
X117807500Y-83185000D03*
%TD*%
%TO.C,D13*%
X144447500Y-83185000D03*
X142572500Y-83185000D03*
%TD*%
D13*
%TO.C,R34*%
X136080000Y-85090000D03*
X134430000Y-85090000D03*
%TD*%
D11*
%TO.C,C15*%
X143510000Y-97015000D03*
X143510000Y-98565000D03*
%TD*%
D10*
%TO.C,SW22*%
X161920000Y-100990000D03*
X161920000Y-107290000D03*
X158120000Y-100990000D03*
X158120000Y-107290000D03*
%TD*%
D12*
%TO.C,R44*%
X161925000Y-96965000D03*
X161925000Y-98615000D03*
%TD*%
D15*
%TO.C,D4*%
X136197500Y-110490000D03*
X134322500Y-110490000D03*
%TD*%
D11*
%TO.C,C4*%
X135255000Y-115430000D03*
X135255000Y-116980000D03*
%TD*%
%TO.C,C18*%
X168275000Y-97015000D03*
X168275000Y-98565000D03*
%TD*%
D10*
%TO.C,SW9*%
X112385000Y-88315000D03*
X112385000Y-94615000D03*
X108585000Y-88315000D03*
X108585000Y-94615000D03*
%TD*%
D13*
%TO.C,R31*%
X127825000Y-85090000D03*
X126175000Y-85090000D03*
%TD*%
D12*
%TO.C,R4*%
X116840000Y-115380000D03*
X116840000Y-117030000D03*
%TD*%
%TO.C,R15*%
X170185000Y-115380000D03*
X170185000Y-117030000D03*
%TD*%
D10*
%TO.C,SW11*%
X120645000Y-88315000D03*
X120645000Y-94615000D03*
X116845000Y-88315000D03*
X116845000Y-94615000D03*
%TD*%
D13*
%TO.C,R46*%
X169100000Y-85090000D03*
X167450000Y-85090000D03*
%TD*%
D11*
%TO.C,C3*%
X127000000Y-115430000D03*
X127000000Y-116980000D03*
%TD*%
D15*
%TO.C,D15*%
X160957500Y-83185000D03*
X159082500Y-83185000D03*
%TD*%
D10*
%TO.C,SW20*%
X153665000Y-100990000D03*
X153665000Y-107290000D03*
X149865000Y-100990000D03*
X149865000Y-107290000D03*
%TD*%
D12*
%TO.C,R47*%
X170180000Y-96965000D03*
X170180000Y-98615000D03*
%TD*%
D15*
%TO.C,D1*%
X111432500Y-110490000D03*
X109557500Y-110490000D03*
%TD*%
D10*
%TO.C,SW2*%
X120640000Y-119405000D03*
X120640000Y-125705000D03*
X116840000Y-119405000D03*
X116840000Y-125705000D03*
%TD*%
%TO.C,SW16*%
X137155000Y-100990000D03*
X137155000Y-107290000D03*
X133355000Y-100990000D03*
X133355000Y-107290000D03*
%TD*%
D13*
%TO.C,R17*%
X111315000Y-112395000D03*
X109665000Y-112395000D03*
%TD*%
D12*
%TO.C,R36*%
X133350000Y-96965000D03*
X133350000Y-98615000D03*
%TD*%
%TO.C,R16*%
X166375000Y-115380000D03*
X166375000Y-117030000D03*
%TD*%
D10*
%TO.C,SW8*%
X170175000Y-119405000D03*
X170175000Y-125705000D03*
X166375000Y-119405000D03*
X166375000Y-125705000D03*
%TD*%
%TO.C,SW5*%
X145405000Y-119405000D03*
X145405000Y-125705000D03*
X141605000Y-119405000D03*
X141605000Y-125705000D03*
%TD*%
%TO.C,SW14*%
X128900000Y-100990000D03*
X128900000Y-107290000D03*
X125100000Y-100990000D03*
X125100000Y-107290000D03*
%TD*%
D12*
%TO.C,R41*%
X153670000Y-96965000D03*
X153670000Y-98615000D03*
%TD*%
D13*
%TO.C,R25*%
X111315000Y-85090000D03*
X109665000Y-85090000D03*
%TD*%
M02*
